<mxfile host="app.diagrams.net" agent="Mozilla/5.0 (Macintosh; Intel Mac OS X 10.15; rv:136.0) Gecko/20100101 Firefox/136.0" version="26.1.0">
  <diagram id="C5RBs43oDa-KdzZeNtuy" name="Page-1">
    <mxGraphModel dx="3216" dy="1527" grid="1" gridSize="10" guides="1" tooltips="1" connect="1" arrows="1" fold="1" page="1" pageScale="1" pageWidth="827" pageHeight="1169" math="0" shadow="0">
      <root>
        <mxCell id="WIyWlLk6GJQsqaUBKTNV-0" />
        <mxCell id="WIyWlLk6GJQsqaUBKTNV-1" parent="WIyWlLk6GJQsqaUBKTNV-0" />
        <mxCell id="zkfFHV4jXpPFQw0GAbJ--0" value="Extractor" style="swimlane;fontStyle=3;align=center;verticalAlign=top;childLayout=stackLayout;horizontal=1;startSize=26;horizontalStack=0;resizeParent=1;resizeLast=0;collapsible=1;marginBottom=0;rounded=0;shadow=0;strokeWidth=1;" parent="WIyWlLk6GJQsqaUBKTNV-1" vertex="1" collapsed="1">
          <mxGeometry x="685" y="157.5" width="160" height="26" as="geometry">
            <mxRectangle x="70" y="230" width="250" height="190" as="alternateBounds" />
          </mxGeometry>
        </mxCell>
        <mxCell id="zkfFHV4jXpPFQw0GAbJ--1" value="# path: String" style="text;align=left;verticalAlign=top;spacingLeft=4;spacingRight=4;overflow=hidden;rotatable=0;points=[[0,0.5],[1,0.5]];portConstraint=eastwest;" parent="zkfFHV4jXpPFQw0GAbJ--0" vertex="1">
          <mxGeometry y="26" width="250" height="26" as="geometry" />
        </mxCell>
        <mxCell id="zkfFHV4jXpPFQw0GAbJ--4" value="" style="line;html=1;strokeWidth=1;align=left;verticalAlign=middle;spacingTop=-1;spacingLeft=3;spacingRight=3;rotatable=0;labelPosition=right;points=[];portConstraint=eastwest;" parent="zkfFHV4jXpPFQw0GAbJ--0" vertex="1">
          <mxGeometry y="52" width="250" height="8" as="geometry" />
        </mxCell>
        <mxCell id="zkfFHV4jXpPFQw0GAbJ--5" value="+ getPath() : String" style="text;align=left;verticalAlign=top;spacingLeft=4;spacingRight=4;overflow=hidden;rotatable=0;points=[[0,0.5],[1,0.5]];portConstraint=eastwest;" parent="zkfFHV4jXpPFQw0GAbJ--0" vertex="1">
          <mxGeometry y="60" width="250" height="26" as="geometry" />
        </mxCell>
        <mxCell id="oxDfwAe6c3NzlhZEujYv-8" value="+ extractModel(path: String) : Model" style="text;align=left;verticalAlign=top;spacingLeft=4;spacingRight=4;overflow=hidden;rotatable=0;points=[[0,0.5],[1,0.5]];portConstraint=eastwest;" parent="zkfFHV4jXpPFQw0GAbJ--0" vertex="1">
          <mxGeometry y="86" width="250" height="26" as="geometry" />
        </mxCell>
        <mxCell id="oxDfwAe6c3NzlhZEujYv-9" value="+ ectractModel() : Model" style="text;align=left;verticalAlign=top;spacingLeft=4;spacingRight=4;overflow=hidden;rotatable=0;points=[[0,0.5],[1,0.5]];portConstraint=eastwest;fontStyle=2" parent="zkfFHV4jXpPFQw0GAbJ--0" vertex="1">
          <mxGeometry y="112" width="250" height="26" as="geometry" />
        </mxCell>
        <mxCell id="oxDfwAe6c3NzlhZEujYv-10" value="+ getModelId() : String" style="text;align=left;verticalAlign=top;spacingLeft=4;spacingRight=4;overflow=hidden;rotatable=0;points=[[0,0.5],[1,0.5]];portConstraint=eastwest;fontStyle=0" parent="zkfFHV4jXpPFQw0GAbJ--0" vertex="1">
          <mxGeometry y="138" width="250" height="26" as="geometry" />
        </mxCell>
        <mxCell id="oxDfwAe6c3NzlhZEujYv-11" value="+ getModelType() : ModelType" style="text;align=left;verticalAlign=top;spacingLeft=4;spacingRight=4;overflow=hidden;rotatable=0;points=[[0,0.5],[1,0.5]];portConstraint=eastwest;fontStyle=2" parent="zkfFHV4jXpPFQw0GAbJ--0" vertex="1">
          <mxGeometry y="164" width="250" height="26" as="geometry" />
        </mxCell>
        <mxCell id="zkfFHV4jXpPFQw0GAbJ--6" value="CodeExtractor" style="swimlane;fontStyle=3;align=center;verticalAlign=top;childLayout=stackLayout;horizontal=1;startSize=26;horizontalStack=0;resizeParent=1;resizeLast=0;collapsible=1;marginBottom=0;rounded=0;shadow=0;strokeWidth=1;" parent="WIyWlLk6GJQsqaUBKTNV-1" vertex="1" collapsed="1">
          <mxGeometry x="685" y="248" width="160" height="26" as="geometry">
            <mxRectangle x="65" y="486" width="260" height="174" as="alternateBounds" />
          </mxGeometry>
        </mxCell>
        <mxCell id="zkfFHV4jXpPFQw0GAbJ--7" value="- logger : Logger" style="text;align=left;verticalAlign=top;spacingLeft=4;spacingRight=4;overflow=hidden;rotatable=0;points=[[0,0.5],[1,0.5]];portConstraint=eastwest;" parent="zkfFHV4jXpPFQw0GAbJ--6" vertex="1">
          <mxGeometry y="26" width="260" height="26" as="geometry" />
        </mxCell>
        <mxCell id="zkfFHV4jXpPFQw0GAbJ--8" value="- Code_Model_File_Name: String" style="text;align=left;verticalAlign=top;spacingLeft=4;spacingRight=4;overflow=hidden;rotatable=0;points=[[0,0.5],[1,0.5]];portConstraint=eastwest;rounded=0;shadow=0;html=0;" parent="zkfFHV4jXpPFQw0GAbJ--6" vertex="1">
          <mxGeometry y="52" width="260" height="26" as="geometry" />
        </mxCell>
        <mxCell id="zkfFHV4jXpPFQw0GAbJ--11" value="# codeItemRepository: CodeItemRepository" style="text;align=left;verticalAlign=top;spacingLeft=4;spacingRight=4;overflow=hidden;rotatable=0;points=[[0,0.5],[1,0.5]];portConstraint=eastwest;" parent="zkfFHV4jXpPFQw0GAbJ--6" vertex="1">
          <mxGeometry y="78" width="260" height="26" as="geometry" />
        </mxCell>
        <mxCell id="zkfFHV4jXpPFQw0GAbJ--9" value="" style="line;html=1;strokeWidth=1;align=left;verticalAlign=middle;spacingTop=-1;spacingLeft=3;spacingRight=3;rotatable=0;labelPosition=right;points=[];portConstraint=eastwest;" parent="zkfFHV4jXpPFQw0GAbJ--6" vertex="1">
          <mxGeometry y="104" width="260" height="8" as="geometry" />
        </mxCell>
        <mxCell id="oxDfwAe6c3NzlhZEujYv-12" value="+ extractModel() : Model" style="text;align=left;verticalAlign=top;spacingLeft=4;spacingRight=4;overflow=hidden;rotatable=0;points=[[0,0.5],[1,0.5]];portConstraint=eastwest;rounded=0;shadow=0;html=0;fontStyle=2" parent="zkfFHV4jXpPFQw0GAbJ--6" vertex="1">
          <mxGeometry y="112" width="260" height="26" as="geometry" />
        </mxCell>
        <mxCell id="oxDfwAe6c3NzlhZEujYv-13" value="+ getModelType() : ModelType" style="text;align=left;verticalAlign=top;spacingLeft=4;spacingRight=4;overflow=hidden;rotatable=0;points=[[0,0.5],[1,0.5]];portConstraint=eastwest;rounded=0;shadow=0;html=0;" parent="zkfFHV4jXpPFQw0GAbJ--6" vertex="1">
          <mxGeometry y="138" width="260" height="26" as="geometry" />
        </mxCell>
        <mxCell id="zkfFHV4jXpPFQw0GAbJ--13" value="ANTLRExtractor" style="swimlane;fontStyle=3;align=center;verticalAlign=top;childLayout=stackLayout;horizontal=1;startSize=26;horizontalStack=0;resizeParent=1;resizeLast=0;collapsible=1;marginBottom=0;rounded=0;shadow=0;strokeWidth=1;" parent="WIyWlLk6GJQsqaUBKTNV-1" vertex="1" collapsed="1">
          <mxGeometry x="680" y="368" width="170" height="26" as="geometry">
            <mxRectangle x="414" y="590" width="446" height="480" as="alternateBounds" />
          </mxGeometry>
        </mxCell>
        <mxCell id="zkfFHV4jXpPFQw0GAbJ--14" value="+ LANGUAGE : ProgrammingLanguage" style="text;align=left;verticalAlign=top;spacingLeft=4;spacingRight=4;overflow=hidden;rotatable=0;points=[[0,0.5],[1,0.5]];portConstraint=eastwest;" parent="zkfFHV4jXpPFQw0GAbJ--13" vertex="1">
          <mxGeometry y="26" width="446" height="26" as="geometry" />
        </mxCell>
        <mxCell id="oxDfwAe6c3NzlhZEujYv-15" value="- elementExtractor : ElementExtractor" style="text;align=left;verticalAlign=top;spacingLeft=4;spacingRight=4;overflow=hidden;rotatable=0;points=[[0,0.5],[1,0.5]];portConstraint=eastwest;" parent="zkfFHV4jXpPFQw0GAbJ--13" vertex="1">
          <mxGeometry y="52" width="446" height="26" as="geometry" />
        </mxCell>
        <mxCell id="oxDfwAe6c3NzlhZEujYv-26" value="- commentExtractor : CommentExtractor" style="text;align=left;verticalAlign=top;spacingLeft=4;spacingRight=4;overflow=hidden;rotatable=0;points=[[0,0.5],[1,0.5]];portConstraint=eastwest;" parent="zkfFHV4jXpPFQw0GAbJ--13" vertex="1">
          <mxGeometry y="78" width="446" height="26" as="geometry" />
        </mxCell>
        <mxCell id="oxDfwAe6c3NzlhZEujYv-14" value="- mapper : ModelMapper" style="text;align=left;verticalAlign=top;spacingLeft=4;spacingRight=4;overflow=hidden;rotatable=0;points=[[0,0.5],[1,0.5]];portConstraint=eastwest;" parent="zkfFHV4jXpPFQw0GAbJ--13" vertex="1">
          <mxGeometry y="104" width="446" height="26" as="geometry" />
        </mxCell>
        <mxCell id="oxDfwAe6c3NzlhZEujYv-17" value="- contentExtracted : boolean" style="text;align=left;verticalAlign=top;spacingLeft=4;spacingRight=4;overflow=hidden;rotatable=0;points=[[0,0.5],[1,0.5]];portConstraint=eastwest;" parent="zkfFHV4jXpPFQw0GAbJ--13" vertex="1">
          <mxGeometry y="130" width="446" height="26" as="geometry" />
        </mxCell>
        <mxCell id="zkfFHV4jXpPFQw0GAbJ--15" value="" style="line;html=1;strokeWidth=1;align=left;verticalAlign=middle;spacingTop=-1;spacingLeft=3;spacingRight=3;rotatable=0;labelPosition=right;points=[];portConstraint=eastwest;" parent="zkfFHV4jXpPFQw0GAbJ--13" vertex="1">
          <mxGeometry y="156" width="446" height="8" as="geometry" />
        </mxCell>
        <mxCell id="oxDfwAe6c3NzlhZEujYv-19" value="+ extractModel() : Model" style="text;align=left;verticalAlign=top;spacingLeft=4;spacingRight=4;overflow=hidden;rotatable=0;points=[[0,0.5],[1,0.5]];portConstraint=eastwest;" parent="zkfFHV4jXpPFQw0GAbJ--13" vertex="1">
          <mxGeometry y="164" width="446" height="26" as="geometry" />
        </mxCell>
        <mxCell id="oxDfwAe6c3NzlhZEujYv-20" value="+ getElementExtractor() : ElementExtractor" style="text;align=left;verticalAlign=top;spacingLeft=4;spacingRight=4;overflow=hidden;rotatable=0;points=[[0,0.5],[1,0.5]];portConstraint=eastwest;" parent="zkfFHV4jXpPFQw0GAbJ--13" vertex="1">
          <mxGeometry y="190" width="446" height="26" as="geometry" />
        </mxCell>
        <mxCell id="oxDfwAe6c3NzlhZEujYv-21" value="+ getMapper() : Mapper" style="text;align=left;verticalAlign=top;spacingLeft=4;spacingRight=4;overflow=hidden;rotatable=0;points=[[0,0.5],[1,0.5]];portConstraint=eastwest;" parent="zkfFHV4jXpPFQw0GAbJ--13" vertex="1">
          <mxGeometry y="216" width="446" height="26" as="geometry" />
        </mxCell>
        <mxCell id="oxDfwAe6c3NzlhZEujYv-22" value="# setMapper(mapper: Mapper) : void" style="text;align=left;verticalAlign=top;spacingLeft=4;spacingRight=4;overflow=hidden;rotatable=0;points=[[0,0.5],[1,0.5]];portConstraint=eastwest;" parent="zkfFHV4jXpPFQw0GAbJ--13" vertex="1">
          <mxGeometry y="242" width="446" height="26" as="geometry" />
        </mxCell>
        <mxCell id="oxDfwAe6c3NzlhZEujYv-23" value="# setElementExtractor(extractor: ElementExtractor) : void" style="text;align=left;verticalAlign=top;spacingLeft=4;spacingRight=4;overflow=hidden;rotatable=0;points=[[0,0.5],[1,0.5]];portConstraint=eastwest;" parent="zkfFHV4jXpPFQw0GAbJ--13" vertex="1">
          <mxGeometry y="268" width="446" height="26" as="geometry" />
        </mxCell>
        <mxCell id="oxDfwAe6c3NzlhZEujYv-25" value="# setCommentExtractor(extractor: CommentExtractor) : void" style="text;align=left;verticalAlign=top;spacingLeft=4;spacingRight=4;overflow=hidden;rotatable=0;points=[[0,0.5],[1,0.5]];portConstraint=eastwest;" parent="zkfFHV4jXpPFQw0GAbJ--13" vertex="1">
          <mxGeometry y="294" width="446" height="26" as="geometry" />
        </mxCell>
        <mxCell id="oxDfwAe6c3NzlhZEujYv-27" value="# getFiles() : List&lt;Path&gt;" style="text;align=left;verticalAlign=top;spacingLeft=4;spacingRight=4;overflow=hidden;rotatable=0;points=[[0,0.5],[1,0.5]];portConstraint=eastwest;fontStyle=2" parent="zkfFHV4jXpPFQw0GAbJ--13" vertex="1">
          <mxGeometry y="320" width="446" height="26" as="geometry" />
        </mxCell>
        <mxCell id="oxDfwAe6c3NzlhZEujYv-28" value="# buildTokens(file : Path) : CommonTokenStream" style="text;align=left;verticalAlign=top;spacingLeft=4;spacingRight=4;overflow=hidden;rotatable=0;points=[[0,0.5],[1,0.5]];portConstraint=eastwest;fontStyle=2" parent="zkfFHV4jXpPFQw0GAbJ--13" vertex="1">
          <mxGeometry y="346" width="446" height="26" as="geometry" />
        </mxCell>
        <mxCell id="oxDfwAe6c3NzlhZEujYv-29" value="- mapToCodeModel() : void" style="text;align=left;verticalAlign=top;spacingLeft=4;spacingRight=4;overflow=hidden;rotatable=0;points=[[0,0.5],[1,0.5]];portConstraint=eastwest;" parent="zkfFHV4jXpPFQw0GAbJ--13" vertex="1">
          <mxGeometry y="372" width="446" height="26" as="geometry" />
        </mxCell>
        <mxCell id="oxDfwAe6c3NzlhZEujYv-30" value="- extractContent() : void" style="text;align=left;verticalAlign=top;spacingLeft=4;spacingRight=4;overflow=hidden;rotatable=0;points=[[0,0.5],[1,0.5]];portConstraint=eastwest;" parent="zkfFHV4jXpPFQw0GAbJ--13" vertex="1">
          <mxGeometry y="398" width="446" height="26" as="geometry" />
        </mxCell>
        <mxCell id="oxDfwAe6c3NzlhZEujYv-31" value="- extractContentFromTokens(file : Path, stream : CommonTokenStream) : void" style="text;align=left;verticalAlign=top;spacingLeft=4;spacingRight=4;overflow=hidden;rotatable=0;points=[[0,0.5],[1,0.5]];portConstraint=eastwest;" parent="zkfFHV4jXpPFQw0GAbJ--13" vertex="1">
          <mxGeometry y="424" width="446" height="26" as="geometry" />
        </mxCell>
        <mxCell id="oxDfwAe6c3NzlhZEujYv-32" value="- extractComments(file : Path, stream : CommonTokenStream) : void" style="text;align=left;verticalAlign=top;spacingLeft=4;spacingRight=4;overflow=hidden;rotatable=0;points=[[0,0.5],[1,0.5]];portConstraint=eastwest;" parent="zkfFHV4jXpPFQw0GAbJ--13" vertex="1">
          <mxGeometry y="450" width="446" height="26" as="geometry" />
        </mxCell>
        <mxCell id="oxDfwAe6c3NzlhZEujYv-33" value="JavaExtractor" style="swimlane;fontStyle=0;align=center;verticalAlign=top;childLayout=stackLayout;horizontal=1;startSize=26;horizontalStack=0;resizeParent=1;resizeLast=0;collapsible=1;marginBottom=0;rounded=0;shadow=0;strokeWidth=1;" parent="WIyWlLk6GJQsqaUBKTNV-1" vertex="1" collapsed="1">
          <mxGeometry x="470" y="587" width="170" height="26" as="geometry">
            <mxRectangle x="930" y="1130" width="290" height="95" as="alternateBounds" />
          </mxGeometry>
        </mxCell>
        <mxCell id="oxDfwAe6c3NzlhZEujYv-39" value="" style="line;html=1;strokeWidth=1;align=left;verticalAlign=middle;spacingTop=-1;spacingLeft=3;spacingRight=3;rotatable=0;labelPosition=right;points=[];portConstraint=eastwest;" parent="oxDfwAe6c3NzlhZEujYv-33" vertex="1">
          <mxGeometry y="26" width="290" height="8" as="geometry" />
        </mxCell>
        <mxCell id="oxDfwAe6c3NzlhZEujYv-40" value="# getFiles() : List&lt;Path&gt;" style="text;align=left;verticalAlign=top;spacingLeft=4;spacingRight=4;overflow=hidden;rotatable=0;points=[[0,0.5],[1,0.5]];portConstraint=eastwest;" parent="oxDfwAe6c3NzlhZEujYv-33" vertex="1">
          <mxGeometry y="34" width="290" height="26" as="geometry" />
        </mxCell>
        <mxCell id="oxDfwAe6c3NzlhZEujYv-41" value="# buildTokens(file : Path) : CommonTokenStream" style="text;align=left;verticalAlign=top;spacingLeft=4;spacingRight=4;overflow=hidden;rotatable=0;points=[[0,0.5],[1,0.5]];portConstraint=eastwest;" parent="oxDfwAe6c3NzlhZEujYv-33" vertex="1">
          <mxGeometry y="60" width="290" height="26" as="geometry" />
        </mxCell>
        <mxCell id="oxDfwAe6c3NzlhZEujYv-52" value="Python3Extractor" style="swimlane;fontStyle=0;align=center;verticalAlign=top;childLayout=stackLayout;horizontal=1;startSize=26;horizontalStack=0;resizeParent=1;resizeLast=0;collapsible=1;marginBottom=0;rounded=0;shadow=0;strokeWidth=1;" parent="WIyWlLk6GJQsqaUBKTNV-1" vertex="1" collapsed="1">
          <mxGeometry x="680" y="587" width="170" height="26" as="geometry">
            <mxRectangle x="580" y="1130" width="290" height="95" as="alternateBounds" />
          </mxGeometry>
        </mxCell>
        <mxCell id="oxDfwAe6c3NzlhZEujYv-53" value="" style="line;html=1;strokeWidth=1;align=left;verticalAlign=middle;spacingTop=-1;spacingLeft=3;spacingRight=3;rotatable=0;labelPosition=right;points=[];portConstraint=eastwest;" parent="oxDfwAe6c3NzlhZEujYv-52" vertex="1">
          <mxGeometry y="26" width="290" height="8" as="geometry" />
        </mxCell>
        <mxCell id="oxDfwAe6c3NzlhZEujYv-54" value="# getFiles() : List&lt;Path&gt;" style="text;align=left;verticalAlign=top;spacingLeft=4;spacingRight=4;overflow=hidden;rotatable=0;points=[[0,0.5],[1,0.5]];portConstraint=eastwest;" parent="oxDfwAe6c3NzlhZEujYv-52" vertex="1">
          <mxGeometry y="34" width="290" height="26" as="geometry" />
        </mxCell>
        <mxCell id="oxDfwAe6c3NzlhZEujYv-55" value="# buildTokens(file : Path) : CommonTokenStream" style="text;align=left;verticalAlign=top;spacingLeft=4;spacingRight=4;overflow=hidden;rotatable=0;points=[[0,0.5],[1,0.5]];portConstraint=eastwest;" parent="oxDfwAe6c3NzlhZEujYv-52" vertex="1">
          <mxGeometry y="60" width="290" height="26" as="geometry" />
        </mxCell>
        <mxCell id="oxDfwAe6c3NzlhZEujYv-56" value="CppExtractor" style="swimlane;fontStyle=0;align=center;verticalAlign=top;childLayout=stackLayout;horizontal=1;startSize=26;horizontalStack=0;resizeParent=1;resizeLast=0;collapsible=1;marginBottom=0;rounded=0;shadow=0;strokeWidth=1;" parent="WIyWlLk6GJQsqaUBKTNV-1" vertex="1" collapsed="1">
          <mxGeometry x="900" y="587" width="170" height="26" as="geometry">
            <mxRectangle x="200" y="1130" width="290" height="95" as="alternateBounds" />
          </mxGeometry>
        </mxCell>
        <mxCell id="oxDfwAe6c3NzlhZEujYv-57" value="" style="line;html=1;strokeWidth=1;align=left;verticalAlign=middle;spacingTop=-1;spacingLeft=3;spacingRight=3;rotatable=0;labelPosition=right;points=[];portConstraint=eastwest;" parent="oxDfwAe6c3NzlhZEujYv-56" vertex="1">
          <mxGeometry y="26" width="290" height="8" as="geometry" />
        </mxCell>
        <mxCell id="oxDfwAe6c3NzlhZEujYv-58" value="# getFiles() : List&lt;Path&gt;" style="text;align=left;verticalAlign=top;spacingLeft=4;spacingRight=4;overflow=hidden;rotatable=0;points=[[0,0.5],[1,0.5]];portConstraint=eastwest;" parent="oxDfwAe6c3NzlhZEujYv-56" vertex="1">
          <mxGeometry y="34" width="290" height="26" as="geometry" />
        </mxCell>
        <mxCell id="oxDfwAe6c3NzlhZEujYv-59" value="# buildTokens(file : Path) : CommonTokenStream" style="text;align=left;verticalAlign=top;spacingLeft=4;spacingRight=4;overflow=hidden;rotatable=0;points=[[0,0.5],[1,0.5]];portConstraint=eastwest;" parent="oxDfwAe6c3NzlhZEujYv-56" vertex="1">
          <mxGeometry y="60" width="290" height="26" as="geometry" />
        </mxCell>
        <mxCell id="oxDfwAe6c3NzlhZEujYv-60" value="CommentExtractor" style="swimlane;fontStyle=3;align=center;verticalAlign=top;childLayout=stackLayout;horizontal=1;startSize=26;horizontalStack=0;resizeParent=1;resizeLast=0;collapsible=1;marginBottom=0;rounded=0;shadow=0;strokeWidth=1;" parent="WIyWlLk6GJQsqaUBKTNV-1" vertex="1" collapsed="1">
          <mxGeometry x="-700" y="488" width="170" height="26" as="geometry">
            <mxRectangle x="890" y="585" width="500" height="275" as="alternateBounds" />
          </mxGeometry>
        </mxCell>
        <mxCell id="oxDfwAe6c3NzlhZEujYv-61" value="- elementManager : ElementManager" style="text;align=left;verticalAlign=top;spacingLeft=4;spacingRight=4;overflow=hidden;rotatable=0;points=[[0,0.5],[1,0.5]];portConstraint=eastwest;" parent="oxDfwAe6c3NzlhZEujYv-60" vertex="1">
          <mxGeometry y="26" width="500" height="26" as="geometry" />
        </mxCell>
        <mxCell id="oxDfwAe6c3NzlhZEujYv-67" value="- currentComments : List&lt;Comment&gt;" style="text;align=left;verticalAlign=top;spacingLeft=4;spacingRight=4;overflow=hidden;rotatable=0;points=[[0,0.5],[1,0.5]];portConstraint=eastwest;" parent="oxDfwAe6c3NzlhZEujYv-60" vertex="1">
          <mxGeometry y="52" width="500" height="26" as="geometry" />
        </mxCell>
        <mxCell id="oxDfwAe6c3NzlhZEujYv-66" value="" style="line;html=1;strokeWidth=1;align=left;verticalAlign=middle;spacingTop=-1;spacingLeft=3;spacingRight=3;rotatable=0;labelPosition=right;points=[];portConstraint=eastwest;" parent="oxDfwAe6c3NzlhZEujYv-60" vertex="1">
          <mxGeometry y="78" width="500" height="8" as="geometry" />
        </mxCell>
        <mxCell id="oxDfwAe6c3NzlhZEujYv-68" value="+ extract(file : Path, tokens : CommonTokenStream) : void" style="text;align=left;verticalAlign=top;spacingLeft=4;spacingRight=4;overflow=hidden;rotatable=0;points=[[0,0.5],[1,0.5]];portConstraint=eastwest;" parent="oxDfwAe6c3NzlhZEujYv-60" vertex="1">
          <mxGeometry y="86" width="500" height="26" as="geometry" />
        </mxCell>
        <mxCell id="oxDfwAe6c3NzlhZEujYv-69" value="+ getCurrentComments() : List&lt;Comment&gt;" style="text;align=left;verticalAlign=top;spacingLeft=4;spacingRight=4;overflow=hidden;rotatable=0;points=[[0,0.5],[1,0.5]];portConstraint=eastwest;" parent="oxDfwAe6c3NzlhZEujYv-60" vertex="1">
          <mxGeometry y="112" width="500" height="26" as="geometry" />
        </mxCell>
        <mxCell id="oxDfwAe6c3NzlhZEujYv-70" value="# isComment(token : Token) : boolean" style="text;align=left;verticalAlign=top;spacingLeft=4;spacingRight=4;overflow=hidden;rotatable=0;points=[[0,0.5],[1,0.5]];portConstraint=eastwest;fontStyle=2" parent="oxDfwAe6c3NzlhZEujYv-60" vertex="1">
          <mxGeometry y="138" width="500" height="26" as="geometry" />
        </mxCell>
        <mxCell id="oxDfwAe6c3NzlhZEujYv-71" value="# isValidComment(text : String) : boolean" style="text;align=left;verticalAlign=top;spacingLeft=4;spacingRight=4;overflow=hidden;rotatable=0;points=[[0,0.5],[1,0.5]];portConstraint=eastwest;fontStyle=2" parent="oxDfwAe6c3NzlhZEujYv-60" vertex="1">
          <mxGeometry y="164" width="500" height="26" as="geometry" />
        </mxCell>
        <mxCell id="oxDfwAe6c3NzlhZEujYv-73" value="# cleanseComment(text : String) : String" style="text;align=left;verticalAlign=top;spacingLeft=4;spacingRight=4;overflow=hidden;rotatable=0;points=[[0,0.5],[1,0.5]];portConstraint=eastwest;fontStyle=2" parent="oxDfwAe6c3NzlhZEujYv-60" vertex="1">
          <mxGeometry y="190" width="500" height="26" as="geometry" />
        </mxCell>
        <mxCell id="oxDfwAe6c3NzlhZEujYv-75" value="- createCommentElement(text : String, startLine : int, endLine : int, path : String) : Comment" style="text;align=left;verticalAlign=top;spacingLeft=4;spacingRight=4;overflow=hidden;rotatable=0;points=[[0,0.5],[1,0.5]];portConstraint=eastwest;" parent="oxDfwAe6c3NzlhZEujYv-60" vertex="1">
          <mxGeometry y="216" width="500" height="26" as="geometry" />
        </mxCell>
        <mxCell id="oxDfwAe6c3NzlhZEujYv-76" value="- countCommentLines(String text) : int" style="text;align=left;verticalAlign=top;spacingLeft=4;spacingRight=4;overflow=hidden;rotatable=0;points=[[0,0.5],[1,0.5]];portConstraint=eastwest;" parent="oxDfwAe6c3NzlhZEujYv-60" vertex="1">
          <mxGeometry y="242" width="500" height="26" as="geometry" />
        </mxCell>
        <mxCell id="oxDfwAe6c3NzlhZEujYv-80" value="JavaCommentExtractor" style="swimlane;fontStyle=0;align=center;verticalAlign=top;childLayout=stackLayout;horizontal=1;startSize=26;horizontalStack=0;resizeParent=1;resizeLast=0;collapsible=1;marginBottom=0;rounded=0;shadow=0;strokeWidth=1;" parent="WIyWlLk6GJQsqaUBKTNV-1" vertex="1" collapsed="1">
          <mxGeometry x="-440" y="394" width="170" height="26" as="geometry">
            <mxRectangle x="900" y="930" width="290" height="112" as="alternateBounds" />
          </mxGeometry>
        </mxCell>
        <mxCell id="oxDfwAe6c3NzlhZEujYv-81" value="" style="line;html=1;strokeWidth=1;align=left;verticalAlign=middle;spacingTop=-1;spacingLeft=3;spacingRight=3;rotatable=0;labelPosition=right;points=[];portConstraint=eastwest;" parent="oxDfwAe6c3NzlhZEujYv-80" vertex="1">
          <mxGeometry y="26" width="290" height="8" as="geometry" />
        </mxCell>
        <mxCell id="oxDfwAe6c3NzlhZEujYv-82" value="# isComment(token : Token) : boolean" style="text;align=left;verticalAlign=top;spacingLeft=4;spacingRight=4;overflow=hidden;rotatable=0;points=[[0,0.5],[1,0.5]];portConstraint=eastwest;" parent="oxDfwAe6c3NzlhZEujYv-80" vertex="1">
          <mxGeometry y="34" width="290" height="26" as="geometry" />
        </mxCell>
        <mxCell id="oxDfwAe6c3NzlhZEujYv-83" value="# isValidComment(text : String) : boolean" style="text;align=left;verticalAlign=top;spacingLeft=4;spacingRight=4;overflow=hidden;rotatable=0;points=[[0,0.5],[1,0.5]];portConstraint=eastwest;" parent="oxDfwAe6c3NzlhZEujYv-80" vertex="1">
          <mxGeometry y="60" width="290" height="26" as="geometry" />
        </mxCell>
        <mxCell id="oxDfwAe6c3NzlhZEujYv-87" value="# cleanseComment(text : String) : String" style="text;align=left;verticalAlign=top;spacingLeft=4;spacingRight=4;overflow=hidden;rotatable=0;points=[[0,0.5],[1,0.5]];portConstraint=eastwest;" parent="oxDfwAe6c3NzlhZEujYv-80" vertex="1">
          <mxGeometry y="86" width="290" height="26" as="geometry" />
        </mxCell>
        <mxCell id="oxDfwAe6c3NzlhZEujYv-88" value="Python3CommentExtractor" style="swimlane;fontStyle=0;align=center;verticalAlign=top;childLayout=stackLayout;horizontal=1;startSize=26;horizontalStack=0;resizeParent=1;resizeLast=0;collapsible=1;marginBottom=0;rounded=0;shadow=0;strokeWidth=1;" parent="WIyWlLk6GJQsqaUBKTNV-1" vertex="1" collapsed="1">
          <mxGeometry x="-430" y="488" width="170" height="26" as="geometry">
            <mxRectangle x="1210" y="920" width="290" height="112" as="alternateBounds" />
          </mxGeometry>
        </mxCell>
        <mxCell id="oxDfwAe6c3NzlhZEujYv-89" value="" style="line;html=1;strokeWidth=1;align=left;verticalAlign=middle;spacingTop=-1;spacingLeft=3;spacingRight=3;rotatable=0;labelPosition=right;points=[];portConstraint=eastwest;" parent="oxDfwAe6c3NzlhZEujYv-88" vertex="1">
          <mxGeometry y="26" width="290" height="8" as="geometry" />
        </mxCell>
        <mxCell id="oxDfwAe6c3NzlhZEujYv-90" value="# isComment(token : Token) : boolean" style="text;align=left;verticalAlign=top;spacingLeft=4;spacingRight=4;overflow=hidden;rotatable=0;points=[[0,0.5],[1,0.5]];portConstraint=eastwest;" parent="oxDfwAe6c3NzlhZEujYv-88" vertex="1">
          <mxGeometry y="34" width="290" height="26" as="geometry" />
        </mxCell>
        <mxCell id="oxDfwAe6c3NzlhZEujYv-91" value="# isValidComment(text : String) : boolean" style="text;align=left;verticalAlign=top;spacingLeft=4;spacingRight=4;overflow=hidden;rotatable=0;points=[[0,0.5],[1,0.5]];portConstraint=eastwest;" parent="oxDfwAe6c3NzlhZEujYv-88" vertex="1">
          <mxGeometry y="60" width="290" height="26" as="geometry" />
        </mxCell>
        <mxCell id="oxDfwAe6c3NzlhZEujYv-92" value="# cleanseComment(text : String) : String" style="text;align=left;verticalAlign=top;spacingLeft=4;spacingRight=4;overflow=hidden;rotatable=0;points=[[0,0.5],[1,0.5]];portConstraint=eastwest;" parent="oxDfwAe6c3NzlhZEujYv-88" vertex="1">
          <mxGeometry y="86" width="290" height="26" as="geometry" />
        </mxCell>
        <mxCell id="oxDfwAe6c3NzlhZEujYv-93" value="CppCommentExtractor" style="swimlane;fontStyle=0;align=center;verticalAlign=top;childLayout=stackLayout;horizontal=1;startSize=26;horizontalStack=0;resizeParent=1;resizeLast=0;collapsible=1;marginBottom=0;rounded=0;shadow=0;strokeWidth=1;" parent="WIyWlLk6GJQsqaUBKTNV-1" vertex="1" collapsed="1">
          <mxGeometry x="-430" y="613" width="170" height="26" as="geometry">
            <mxRectangle x="1241" y="1060" width="290" height="112" as="alternateBounds" />
          </mxGeometry>
        </mxCell>
        <mxCell id="oxDfwAe6c3NzlhZEujYv-94" value="" style="line;html=1;strokeWidth=1;align=left;verticalAlign=middle;spacingTop=-1;spacingLeft=3;spacingRight=3;rotatable=0;labelPosition=right;points=[];portConstraint=eastwest;" parent="oxDfwAe6c3NzlhZEujYv-93" vertex="1">
          <mxGeometry y="26" width="290" height="8" as="geometry" />
        </mxCell>
        <mxCell id="oxDfwAe6c3NzlhZEujYv-95" value="# isComment(token : Token) : boolean" style="text;align=left;verticalAlign=top;spacingLeft=4;spacingRight=4;overflow=hidden;rotatable=0;points=[[0,0.5],[1,0.5]];portConstraint=eastwest;" parent="oxDfwAe6c3NzlhZEujYv-93" vertex="1">
          <mxGeometry y="34" width="290" height="26" as="geometry" />
        </mxCell>
        <mxCell id="oxDfwAe6c3NzlhZEujYv-96" value="# isValidComment(text : String) : boolean" style="text;align=left;verticalAlign=top;spacingLeft=4;spacingRight=4;overflow=hidden;rotatable=0;points=[[0,0.5],[1,0.5]];portConstraint=eastwest;" parent="oxDfwAe6c3NzlhZEujYv-93" vertex="1">
          <mxGeometry y="60" width="290" height="26" as="geometry" />
        </mxCell>
        <mxCell id="oxDfwAe6c3NzlhZEujYv-97" value="# cleanseComment(text : String) : String" style="text;align=left;verticalAlign=top;spacingLeft=4;spacingRight=4;overflow=hidden;rotatable=0;points=[[0,0.5],[1,0.5]];portConstraint=eastwest;" parent="oxDfwAe6c3NzlhZEujYv-93" vertex="1">
          <mxGeometry y="86" width="290" height="26" as="geometry" />
        </mxCell>
        <mxCell id="oxDfwAe6c3NzlhZEujYv-109" value="JavaElementExtractor" style="swimlane;fontStyle=0;align=center;verticalAlign=top;childLayout=stackLayout;horizontal=1;startSize=26;horizontalStack=0;resizeParent=1;resizeLast=0;collapsible=1;marginBottom=0;rounded=0;shadow=1;strokeWidth=1;" parent="WIyWlLk6GJQsqaUBKTNV-1" vertex="1" collapsed="1">
          <mxGeometry x="-60" y="394" width="160" height="26" as="geometry">
            <mxRectangle x="1630" y="650" width="830" height="640" as="alternateBounds" />
          </mxGeometry>
        </mxCell>
        <mxCell id="oxDfwAe6c3NzlhZEujYv-116" value="- elementManager : JavaElementManager" style="text;align=left;verticalAlign=top;spacingLeft=4;spacingRight=4;overflow=hidden;rotatable=0;points=[[0,0.5],[1,0.5]];portConstraint=eastwest;rounded=0;shadow=0;html=0;" parent="oxDfwAe6c3NzlhZEujYv-109" vertex="1">
          <mxGeometry y="26" width="830" height="26" as="geometry" />
        </mxCell>
        <mxCell id="oxDfwAe6c3NzlhZEujYv-113" value="" style="line;html=1;strokeWidth=1;align=left;verticalAlign=middle;spacingTop=-1;spacingLeft=3;spacingRight=3;rotatable=0;labelPosition=right;points=[];portConstraint=eastwest;" parent="oxDfwAe6c3NzlhZEujYv-109" vertex="1">
          <mxGeometry y="52" width="830" height="8" as="geometry" />
        </mxCell>
        <mxCell id="oxDfwAe6c3NzlhZEujYv-114" value="+ extract(tokens : CommonTokenStream) : void" style="text;align=left;verticalAlign=top;spacingLeft=4;spacingRight=4;overflow=hidden;rotatable=0;points=[[0,0.5],[1,0.5]];portConstraint=eastwest;rounded=0;shadow=0;html=0;fontStyle=0" parent="oxDfwAe6c3NzlhZEujYv-109" vertex="1">
          <mxGeometry y="60" width="830" height="26" as="geometry" />
        </mxCell>
        <mxCell id="oxDfwAe6c3NzlhZEujYv-115" value="+ getElements(manager : ElementManager)" style="text;align=left;verticalAlign=top;spacingLeft=4;spacingRight=4;overflow=hidden;rotatable=0;points=[[0,0.5],[1,0.5]];portConstraint=eastwest;rounded=0;shadow=0;html=0;" parent="oxDfwAe6c3NzlhZEujYv-109" vertex="1">
          <mxGeometry y="86" width="830" height="26" as="geometry" />
        </mxCell>
        <mxCell id="oxDfwAe6c3NzlhZEujYv-117" value="- buildContext(tokens : CommonTokenStream) : CompilationUnitContext" style="text;align=left;verticalAlign=top;spacingLeft=4;spacingRight=4;overflow=hidden;rotatable=0;points=[[0,0.5],[1,0.5]];portConstraint=eastwest;rounded=0;shadow=0;html=0;" parent="oxDfwAe6c3NzlhZEujYv-109" vertex="1">
          <mxGeometry y="112" width="830" height="26" as="geometry" />
        </mxCell>
        <mxCell id="oxDfwAe6c3NzlhZEujYv-118" value="+ visitCompilationUnitContext(ctx : CompilationUnitContext) : void" style="text;align=left;verticalAlign=top;spacingLeft=4;spacingRight=4;overflow=hidden;rotatable=0;points=[[0,0.5],[1,0.5]];portConstraint=eastwest;rounded=0;shadow=0;html=0;" parent="oxDfwAe6c3NzlhZEujYv-109" vertex="1">
          <mxGeometry y="138" width="830" height="26" as="geometry" />
        </mxCell>
        <mxCell id="oxDfwAe6c3NzlhZEujYv-130" value="+ visitClassDeclaration(ctx : ClassDeclarationContext) : void" style="text;align=left;verticalAlign=top;spacingLeft=4;spacingRight=4;overflow=hidden;rotatable=0;points=[[0,0.5],[1,0.5]];portConstraint=eastwest;rounded=0;shadow=0;html=0;" parent="oxDfwAe6c3NzlhZEujYv-109" vertex="1">
          <mxGeometry y="164" width="830" height="26" as="geometry" />
        </mxCell>
        <mxCell id="oxDfwAe6c3NzlhZEujYv-131" value="+ visitEnumDeclaration(ctx : EnumDeclarationContext) : void" style="text;align=left;verticalAlign=top;spacingLeft=4;spacingRight=4;overflow=hidden;rotatable=0;points=[[0,0.5],[1,0.5]];portConstraint=eastwest;rounded=0;shadow=0;html=0;" parent="oxDfwAe6c3NzlhZEujYv-109" vertex="1">
          <mxGeometry y="190" width="830" height="26" as="geometry" />
        </mxCell>
        <mxCell id="oxDfwAe6c3NzlhZEujYv-132" value="+ visitRecordDeclaration(ctx : RecordDeclarationContext) : void" style="text;align=left;verticalAlign=top;spacingLeft=4;spacingRight=4;overflow=hidden;rotatable=0;points=[[0,0.5],[1,0.5]];portConstraint=eastwest;rounded=0;shadow=0;html=0;" parent="oxDfwAe6c3NzlhZEujYv-109" vertex="1">
          <mxGeometry y="216" width="830" height="26" as="geometry" />
        </mxCell>
        <mxCell id="oxDfwAe6c3NzlhZEujYv-133" value="+ visitInterfaceDeclaration(ctx : InterfaceDeclarationContext) : void" style="text;align=left;verticalAlign=top;spacingLeft=4;spacingRight=4;overflow=hidden;rotatable=0;points=[[0,0.5],[1,0.5]];portConstraint=eastwest;rounded=0;shadow=0;html=0;" parent="oxDfwAe6c3NzlhZEujYv-109" vertex="1">
          <mxGeometry y="242" width="830" height="26" as="geometry" />
        </mxCell>
        <mxCell id="oxDfwAe6c3NzlhZEujYv-134" value="+ visitMethodDeclaration(ctx : MethodDeclarationContext) : void" style="text;align=left;verticalAlign=top;spacingLeft=4;spacingRight=4;overflow=hidden;rotatable=0;points=[[0,0.5],[1,0.5]];portConstraint=eastwest;rounded=0;shadow=0;html=0;" parent="oxDfwAe6c3NzlhZEujYv-109" vertex="1">
          <mxGeometry y="268" width="830" height="26" as="geometry" />
        </mxCell>
        <mxCell id="oxDfwAe6c3NzlhZEujYv-135" value="+ visitLocalVariableDeclaration(ctx : LocalVariableDeclarationContext) : void" style="text;align=left;verticalAlign=top;spacingLeft=4;spacingRight=4;overflow=hidden;rotatable=0;points=[[0,0.5],[1,0.5]];portConstraint=eastwest;rounded=0;shadow=0;html=0;" parent="oxDfwAe6c3NzlhZEujYv-109" vertex="1">
          <mxGeometry y="294" width="830" height="26" as="geometry" />
        </mxCell>
        <mxCell id="oxDfwAe6c3NzlhZEujYv-136" value="- extractVariableNames(variableDeclarators : List&lt;VariableDeclaratorContext&gt;) : List&lt;String&gt;" style="text;align=left;verticalAlign=top;spacingLeft=4;spacingRight=4;overflow=hidden;rotatable=0;points=[[0,0.5],[1,0.5]];portConstraint=eastwest;rounded=0;shadow=0;html=0;" parent="oxDfwAe6c3NzlhZEujYv-109" vertex="1">
          <mxGeometry y="320" width="830" height="26" as="geometry" />
        </mxCell>
        <mxCell id="oxDfwAe6c3NzlhZEujYv-137" value="- addVariables(varNames : List&lt;String&gt;, path : String, variableType : String, parent : Parent, int startLine, int endLine) : void" style="text;align=left;verticalAlign=top;spacingLeft=4;spacingRight=4;overflow=hidden;rotatable=0;points=[[0,0.5],[1,0.5]];portConstraint=eastwest;rounded=0;shadow=0;html=0;" parent="oxDfwAe6c3NzlhZEujYv-109" vertex="1">
          <mxGeometry y="346" width="830" height="26" as="geometry" />
        </mxCell>
        <mxCell id="oxDfwAe6c3NzlhZEujYv-140" value="- addVariable(varName : String, path : String, variableType : String, parent : Parent, int startLine, int endLine) : void" style="text;align=left;verticalAlign=top;spacingLeft=4;spacingRight=4;overflow=hidden;rotatable=0;points=[[0,0.5],[1,0.5]];portConstraint=eastwest;rounded=0;shadow=0;html=0;" parent="oxDfwAe6c3NzlhZEujYv-109" vertex="1">
          <mxGeometry y="372" width="830" height="26" as="geometry" />
        </mxCell>
        <mxCell id="oxDfwAe6c3NzlhZEujYv-138" value="- addClass(name : String, path : String, parent : Parent, extendsClass : String, implementedInterfaces : List&lt;String&gt;, startLine : int, endLine : int) : void" style="text;align=left;verticalAlign=top;spacingLeft=4;spacingRight=4;overflow=hidden;rotatable=0;points=[[0,0.5],[1,0.5]];portConstraint=eastwest;rounded=0;shadow=0;html=0;" parent="oxDfwAe6c3NzlhZEujYv-109" vertex="1">
          <mxGeometry y="398" width="830" height="26" as="geometry" />
        </mxCell>
        <mxCell id="oxDfwAe6c3NzlhZEujYv-141" value="- addFunction(name : String, path : String, parent : Parent, startLine : int, endLine : int) : void" style="text;align=left;verticalAlign=top;spacingLeft=4;spacingRight=4;overflow=hidden;rotatable=0;points=[[0,0.5],[1,0.5]];portConstraint=eastwest;rounded=0;shadow=0;html=0;" parent="oxDfwAe6c3NzlhZEujYv-109" vertex="1">
          <mxGeometry y="424" width="830" height="26" as="geometry" />
        </mxCell>
        <mxCell id="oxDfwAe6c3NzlhZEujYv-142" value="- addInterface(name : String, path : String, parent : Parent, startLine : int, endLine : int) : void" style="text;align=left;verticalAlign=top;spacingLeft=4;spacingRight=4;overflow=hidden;rotatable=0;points=[[0,0.5],[1,0.5]];portConstraint=eastwest;rounded=0;shadow=0;html=0;" parent="oxDfwAe6c3NzlhZEujYv-109" vertex="1">
          <mxGeometry y="450" width="830" height="26" as="geometry" />
        </mxCell>
        <mxCell id="oxDfwAe6c3NzlhZEujYv-143" value="- addCompilationUnit(ctx : CompilationUnitContext) : void" style="text;align=left;verticalAlign=top;spacingLeft=4;spacingRight=4;overflow=hidden;rotatable=0;points=[[0,0.5],[1,0.5]];portConstraint=eastwest;rounded=0;shadow=0;html=0;" parent="oxDfwAe6c3NzlhZEujYv-109" vertex="1">
          <mxGeometry y="476" width="830" height="26" as="geometry" />
        </mxCell>
        <mxCell id="oxDfwAe6c3NzlhZEujYv-144" value="- addPackage(packageName : String, packagePath : String ) : void" style="text;align=left;verticalAlign=top;spacingLeft=4;spacingRight=4;overflow=hidden;rotatable=0;points=[[0,0.5],[1,0.5]];portConstraint=eastwest;rounded=0;shadow=0;html=0;" parent="oxDfwAe6c3NzlhZEujYv-109" vertex="1">
          <mxGeometry y="502" width="830" height="26" as="geometry" />
        </mxCell>
        <mxCell id="oxDfwAe6c3NzlhZEujYv-145" value="- extractImplementedInterfaces(ctx : ClassDeclarationContext) : List&lt;String&gt;" style="text;align=left;verticalAlign=top;spacingLeft=4;spacingRight=4;overflow=hidden;rotatable=0;points=[[0,0.5],[1,0.5]];portConstraint=eastwest;rounded=0;shadow=0;html=0;" parent="oxDfwAe6c3NzlhZEujYv-109" vertex="1">
          <mxGeometry y="528" width="830" height="26" as="geometry" />
        </mxCell>
        <mxCell id="oxDfwAe6c3NzlhZEujYv-151" value="- extractImplementedInterfaces(ctx : RecordDeclarationContext) : List&lt;String&gt;" style="text;align=left;verticalAlign=top;spacingLeft=4;spacingRight=4;overflow=hidden;rotatable=0;points=[[0,0.5],[1,0.5]];portConstraint=eastwest;rounded=0;shadow=0;html=0;" parent="oxDfwAe6c3NzlhZEujYv-109" vertex="1">
          <mxGeometry y="554" width="830" height="26" as="geometry" />
        </mxCell>
        <mxCell id="oxDfwAe6c3NzlhZEujYv-152" value="- extractImplementedInterfaces(ctx : TypeListContext) : List&lt;String&gt;" style="text;align=left;verticalAlign=top;spacingLeft=4;spacingRight=4;overflow=hidden;rotatable=0;points=[[0,0.5],[1,0.5]];portConstraint=eastwest;rounded=0;shadow=0;html=0;" parent="oxDfwAe6c3NzlhZEujYv-109" vertex="1">
          <mxGeometry y="580" width="830" height="26" as="geometry" />
        </mxCell>
        <mxCell id="oxDfwAe6c3NzlhZEujYv-146" value="- updatePackageParents(packageName : String, packagePath : String) : void" style="text;align=left;verticalAlign=top;spacingLeft=4;spacingRight=4;overflow=hidden;rotatable=0;points=[[0,0.5],[1,0.5]];portConstraint=eastwest;rounded=0;shadow=0;html=0;" parent="oxDfwAe6c3NzlhZEujYv-109" vertex="1">
          <mxGeometry y="606" width="830" height="26" as="geometry" />
        </mxCell>
        <mxCell id="oxDfwAe6c3NzlhZEujYv-153" value="Python3ElementExtractor" style="swimlane;fontStyle=0;align=center;verticalAlign=top;childLayout=stackLayout;horizontal=1;startSize=26;horizontalStack=0;resizeParent=1;resizeLast=0;collapsible=1;marginBottom=0;rounded=0;shadow=1;strokeWidth=1;" parent="WIyWlLk6GJQsqaUBKTNV-1" vertex="1" collapsed="1">
          <mxGeometry x="-80" y="488" width="160" height="26" as="geometry">
            <mxRectangle x="1600" y="1350" width="640" height="540" as="alternateBounds" />
          </mxGeometry>
        </mxCell>
        <mxCell id="oxDfwAe6c3NzlhZEujYv-154" value="- elementManager : Python3ElementManager" style="text;align=left;verticalAlign=top;spacingLeft=4;spacingRight=4;overflow=hidden;rotatable=0;points=[[0,0.5],[1,0.5]];portConstraint=eastwest;rounded=0;shadow=0;html=0;" parent="oxDfwAe6c3NzlhZEujYv-153" vertex="1">
          <mxGeometry y="26" width="640" height="26" as="geometry" />
        </mxCell>
        <mxCell id="oxDfwAe6c3NzlhZEujYv-155" value="" style="line;html=1;strokeWidth=1;align=left;verticalAlign=middle;spacingTop=-1;spacingLeft=3;spacingRight=3;rotatable=0;labelPosition=right;points=[];portConstraint=eastwest;" parent="oxDfwAe6c3NzlhZEujYv-153" vertex="1">
          <mxGeometry y="52" width="640" height="8" as="geometry" />
        </mxCell>
        <mxCell id="oxDfwAe6c3NzlhZEujYv-156" value="+ extract(tokens : CommonTokenStream) : void" style="text;align=left;verticalAlign=top;spacingLeft=4;spacingRight=4;overflow=hidden;rotatable=0;points=[[0,0.5],[1,0.5]];portConstraint=eastwest;rounded=0;shadow=0;html=0;fontStyle=0" parent="oxDfwAe6c3NzlhZEujYv-153" vertex="1">
          <mxGeometry y="60" width="640" height="26" as="geometry" />
        </mxCell>
        <mxCell id="oxDfwAe6c3NzlhZEujYv-157" value="+ getElements(manager : ElementManager)" style="text;align=left;verticalAlign=top;spacingLeft=4;spacingRight=4;overflow=hidden;rotatable=0;points=[[0,0.5],[1,0.5]];portConstraint=eastwest;rounded=0;shadow=0;html=0;" parent="oxDfwAe6c3NzlhZEujYv-153" vertex="1">
          <mxGeometry y="86" width="640" height="26" as="geometry" />
        </mxCell>
        <mxCell id="oxDfwAe6c3NzlhZEujYv-158" value="- buildContext(tokens : CommonTokenStream) : File_inputContext" style="text;align=left;verticalAlign=top;spacingLeft=4;spacingRight=4;overflow=hidden;rotatable=0;points=[[0,0.5],[1,0.5]];portConstraint=eastwest;rounded=0;shadow=0;html=0;" parent="oxDfwAe6c3NzlhZEujYv-153" vertex="1">
          <mxGeometry y="112" width="640" height="26" as="geometry" />
        </mxCell>
        <mxCell id="oxDfwAe6c3NzlhZEujYv-159" value="+ visitClassdef(ctx : ClassdefContext) : void" style="text;align=left;verticalAlign=top;spacingLeft=4;spacingRight=4;overflow=hidden;rotatable=0;points=[[0,0.5],[1,0.5]];portConstraint=eastwest;rounded=0;shadow=0;html=0;" parent="oxDfwAe6c3NzlhZEujYv-153" vertex="1">
          <mxGeometry y="138" width="640" height="26" as="geometry" />
        </mxCell>
        <mxCell id="oxDfwAe6c3NzlhZEujYv-160" value="+ visitFuncdef(ctx : FuncdefContext) : void" style="text;align=left;verticalAlign=top;spacingLeft=4;spacingRight=4;overflow=hidden;rotatable=0;points=[[0,0.5],[1,0.5]];portConstraint=eastwest;rounded=0;shadow=0;html=0;" parent="oxDfwAe6c3NzlhZEujYv-153" vertex="1">
          <mxGeometry y="164" width="640" height="26" as="geometry" />
        </mxCell>
        <mxCell id="oxDfwAe6c3NzlhZEujYv-161" value="+ visitSimple_stmt(ctx : Simple_stmtContext) : void" style="text;align=left;verticalAlign=top;spacingLeft=4;spacingRight=4;overflow=hidden;rotatable=0;points=[[0,0.5],[1,0.5]];portConstraint=eastwest;rounded=0;shadow=0;html=0;" parent="oxDfwAe6c3NzlhZEujYv-153" vertex="1">
          <mxGeometry y="190" width="640" height="26" as="geometry" />
        </mxCell>
        <mxCell id="oxDfwAe6c3NzlhZEujYv-162" value="+ visitExpr_stmt(ctx : Expr_stmtContext) : void" style="text;align=left;verticalAlign=top;spacingLeft=4;spacingRight=4;overflow=hidden;rotatable=0;points=[[0,0.5],[1,0.5]];portConstraint=eastwest;rounded=0;shadow=0;html=0;" parent="oxDfwAe6c3NzlhZEujYv-153" vertex="1">
          <mxGeometry y="216" width="640" height="26" as="geometry" />
        </mxCell>
        <mxCell id="oxDfwAe6c3NzlhZEujYv-166" value="- getParentClasses(ctx : ClassdefContext) : List&lt;String&gt;" style="text;align=left;verticalAlign=top;spacingLeft=4;spacingRight=4;overflow=hidden;rotatable=0;points=[[0,0.5],[1,0.5]];portConstraint=eastwest;rounded=0;shadow=0;html=0;" parent="oxDfwAe6c3NzlhZEujYv-153" vertex="1">
          <mxGeometry y="242" width="640" height="26" as="geometry" />
        </mxCell>
        <mxCell id="oxDfwAe6c3NzlhZEujYv-167" value="- extractVariablesFromExprStmt(ctx : Expr_stmtContext) : void " style="text;align=left;verticalAlign=top;spacingLeft=4;spacingRight=4;overflow=hidden;rotatable=0;points=[[0,0.5],[1,0.5]];portConstraint=eastwest;rounded=0;shadow=0;html=0;" parent="oxDfwAe6c3NzlhZEujYv-153" vertex="1">
          <mxGeometry y="268" width="640" height="26" as="geometry" />
        </mxCell>
        <mxCell id="oxDfwAe6c3NzlhZEujYv-168" value="- extractVariableNames(variableDeclarators : Testlist_star_exprContext) : List&lt;String&gt;" style="text;align=left;verticalAlign=top;spacingLeft=4;spacingRight=4;overflow=hidden;rotatable=0;points=[[0,0.5],[1,0.5]];portConstraint=eastwest;rounded=0;shadow=0;html=0;" parent="oxDfwAe6c3NzlhZEujYv-153" vertex="1">
          <mxGeometry y="294" width="640" height="26" as="geometry" />
        </mxCell>
        <mxCell id="oxDfwAe6c3NzlhZEujYv-169" value="- inferTypesFromValues(values : List&lt;String&gt;) : List&lt;String&gt;" style="text;align=left;verticalAlign=top;spacingLeft=4;spacingRight=4;overflow=hidden;rotatable=0;points=[[0,0.5],[1,0.5]];portConstraint=eastwest;rounded=0;shadow=0;html=0;" parent="oxDfwAe6c3NzlhZEujYv-153" vertex="1">
          <mxGeometry y="320" width="640" height="26" as="geometry" />
        </mxCell>
        <mxCell id="oxDfwAe6c3NzlhZEujYv-170" value="- inferTypeFromValue(value : String) : String" style="text;align=left;verticalAlign=top;spacingLeft=4;spacingRight=4;overflow=hidden;rotatable=0;points=[[0,0.5],[1,0.5]];portConstraint=eastwest;rounded=0;shadow=0;html=0;" parent="oxDfwAe6c3NzlhZEujYv-153" vertex="1">
          <mxGeometry y="346" width="640" height="26" as="geometry" />
        </mxCell>
        <mxCell id="oxDfwAe6c3NzlhZEujYv-171" value="- addVariable(varName : String, path : String, type : String, parent : Parent, value : String, startLine : int, endLine : int)" style="text;align=left;verticalAlign=top;spacingLeft=4;spacingRight=4;overflow=hidden;rotatable=0;points=[[0,0.5],[1,0.5]];portConstraint=eastwest;rounded=0;shadow=0;html=0;" parent="oxDfwAe6c3NzlhZEujYv-153" vertex="1">
          <mxGeometry y="372" width="640" height="26" as="geometry" />
        </mxCell>
        <mxCell id="oxDfwAe6c3NzlhZEujYv-172" value="- addFunction(name : String, path : String, parent : Parent, startLine : int, endLine : int) : void" style="text;align=left;verticalAlign=top;spacingLeft=4;spacingRight=4;overflow=hidden;rotatable=0;points=[[0,0.5],[1,0.5]];portConstraint=eastwest;rounded=0;shadow=0;html=0;" parent="oxDfwAe6c3NzlhZEujYv-153" vertex="1">
          <mxGeometry y="398" width="640" height="26" as="geometry" />
        </mxCell>
        <mxCell id="oxDfwAe6c3NzlhZEujYv-173" value="- addClass(name : String, path : String, parent : Parent, childClassOf : List&lt;String&gt;, startLine : int, endLine : int) : void" style="text;align=left;verticalAlign=top;spacingLeft=4;spacingRight=4;overflow=hidden;rotatable=0;points=[[0,0.5],[1,0.5]];portConstraint=eastwest;rounded=0;shadow=0;html=0;" parent="oxDfwAe6c3NzlhZEujYv-153" vertex="1">
          <mxGeometry y="424" width="640" height="26" as="geometry" />
        </mxCell>
        <mxCell id="oxDfwAe6c3NzlhZEujYv-174" value="- addModules(ctx : File_inputContext) : void" style="text;align=left;verticalAlign=top;spacingLeft=4;spacingRight=4;overflow=hidden;rotatable=0;points=[[0,0.5],[1,0.5]];portConstraint=eastwest;rounded=0;shadow=0;html=0;" parent="oxDfwAe6c3NzlhZEujYv-153" vertex="1">
          <mxGeometry y="450" width="640" height="26" as="geometry" />
        </mxCell>
        <mxCell id="oxDfwAe6c3NzlhZEujYv-175" value="- addPackage(packagePath : String) : void" style="text;align=left;verticalAlign=top;spacingLeft=4;spacingRight=4;overflow=hidden;rotatable=0;points=[[0,0.5],[1,0.5]];portConstraint=eastwest;rounded=0;shadow=0;html=0;" parent="oxDfwAe6c3NzlhZEujYv-153" vertex="1">
          <mxGeometry y="476" width="640" height="26" as="geometry" />
        </mxCell>
        <mxCell id="oxDfwAe6c3NzlhZEujYv-177" value="- updatePackageParents(packageName : String, packagePath : String) : void" style="text;align=left;verticalAlign=top;spacingLeft=4;spacingRight=4;overflow=hidden;rotatable=0;points=[[0,0.5],[1,0.5]];portConstraint=eastwest;rounded=0;shadow=0;html=0;" parent="oxDfwAe6c3NzlhZEujYv-153" vertex="1">
          <mxGeometry y="502" width="640" height="26" as="geometry" />
        </mxCell>
        <mxCell id="oxDfwAe6c3NzlhZEujYv-178" value="CppElementExtractor" style="swimlane;fontStyle=0;align=center;verticalAlign=top;childLayout=stackLayout;horizontal=1;startSize=26;horizontalStack=0;resizeParent=1;resizeLast=0;collapsible=1;marginBottom=0;rounded=0;shadow=1;strokeWidth=1;" parent="WIyWlLk6GJQsqaUBKTNV-1" vertex="1" collapsed="1">
          <mxGeometry x="-60" y="613" width="160" height="26" as="geometry">
            <mxRectangle x="1640" y="1910" width="700" height="710" as="alternateBounds" />
          </mxGeometry>
        </mxCell>
        <mxCell id="oxDfwAe6c3NzlhZEujYv-179" value="- elementManager : CppElementManager" style="text;align=left;verticalAlign=top;spacingLeft=4;spacingRight=4;overflow=hidden;rotatable=0;points=[[0,0.5],[1,0.5]];portConstraint=eastwest;rounded=0;shadow=0;html=0;" parent="oxDfwAe6c3NzlhZEujYv-178" vertex="1">
          <mxGeometry y="26" width="700" height="26" as="geometry" />
        </mxCell>
        <mxCell id="oxDfwAe6c3NzlhZEujYv-180" value="" style="line;html=1;strokeWidth=1;align=left;verticalAlign=middle;spacingTop=-1;spacingLeft=3;spacingRight=3;rotatable=0;labelPosition=right;points=[];portConstraint=eastwest;" parent="oxDfwAe6c3NzlhZEujYv-178" vertex="1">
          <mxGeometry y="52" width="700" height="8" as="geometry" />
        </mxCell>
        <mxCell id="oxDfwAe6c3NzlhZEujYv-181" value="+ extract(tokens : CommonTokenStream) : void" style="text;align=left;verticalAlign=top;spacingLeft=4;spacingRight=4;overflow=hidden;rotatable=0;points=[[0,0.5],[1,0.5]];portConstraint=eastwest;rounded=0;shadow=0;html=0;fontStyle=0" parent="oxDfwAe6c3NzlhZEujYv-178" vertex="1">
          <mxGeometry y="60" width="700" height="26" as="geometry" />
        </mxCell>
        <mxCell id="oxDfwAe6c3NzlhZEujYv-182" value="+ getElements(manager : ElementManager)" style="text;align=left;verticalAlign=top;spacingLeft=4;spacingRight=4;overflow=hidden;rotatable=0;points=[[0,0.5],[1,0.5]];portConstraint=eastwest;rounded=0;shadow=0;html=0;" parent="oxDfwAe6c3NzlhZEujYv-178" vertex="1">
          <mxGeometry y="86" width="700" height="26" as="geometry" />
        </mxCell>
        <mxCell id="oxDfwAe6c3NzlhZEujYv-183" value="- buildContext(tokens : CommonTokenStream) : TranslationUnitContext" style="text;align=left;verticalAlign=top;spacingLeft=4;spacingRight=4;overflow=hidden;rotatable=0;points=[[0,0.5],[1,0.5]];portConstraint=eastwest;rounded=0;shadow=0;html=0;" parent="oxDfwAe6c3NzlhZEujYv-178" vertex="1">
          <mxGeometry y="112" width="700" height="26" as="geometry" />
        </mxCell>
        <mxCell id="oxDfwAe6c3NzlhZEujYv-184" value="+ visitTranslationUnit(ctx : TranslationUnitContext) : void" style="text;align=left;verticalAlign=top;spacingLeft=4;spacingRight=4;overflow=hidden;rotatable=0;points=[[0,0.5],[1,0.5]];portConstraint=eastwest;rounded=0;shadow=0;html=0;" parent="oxDfwAe6c3NzlhZEujYv-178" vertex="1">
          <mxGeometry y="138" width="700" height="26" as="geometry" />
        </mxCell>
        <mxCell id="oxDfwAe6c3NzlhZEujYv-185" value="+ visitDeclaration(ctx : DeclarationContext) : void" style="text;align=left;verticalAlign=top;spacingLeft=4;spacingRight=4;overflow=hidden;rotatable=0;points=[[0,0.5],[1,0.5]];portConstraint=eastwest;rounded=0;shadow=0;html=0;" parent="oxDfwAe6c3NzlhZEujYv-178" vertex="1">
          <mxGeometry y="164" width="700" height="26" as="geometry" />
        </mxCell>
        <mxCell id="oxDfwAe6c3NzlhZEujYv-186" value="+ visitNamespaceDefinition(ctx : NamespaceDefinitionContext) : void" style="text;align=left;verticalAlign=top;spacingLeft=4;spacingRight=4;overflow=hidden;rotatable=0;points=[[0,0.5],[1,0.5]];portConstraint=eastwest;rounded=0;shadow=0;html=0;" parent="oxDfwAe6c3NzlhZEujYv-178" vertex="1">
          <mxGeometry y="190" width="700" height="26" as="geometry" />
        </mxCell>
        <mxCell id="oxDfwAe6c3NzlhZEujYv-187" value="+ visitBlockDeclaration(ctx : BlockDeclarationContext) : void" style="text;align=left;verticalAlign=top;spacingLeft=4;spacingRight=4;overflow=hidden;rotatable=0;points=[[0,0.5],[1,0.5]];portConstraint=eastwest;rounded=0;shadow=0;html=0;" parent="oxDfwAe6c3NzlhZEujYv-178" vertex="1">
          <mxGeometry y="216" width="700" height="26" as="geometry" />
        </mxCell>
        <mxCell id="oxDfwAe6c3NzlhZEujYv-188" value="+ visitFunctionDefinition(ctx : FunctionDefinitionContext) : void" style="text;align=left;verticalAlign=top;spacingLeft=4;spacingRight=4;overflow=hidden;rotatable=0;points=[[0,0.5],[1,0.5]];portConstraint=eastwest;rounded=0;shadow=0;html=0;" parent="oxDfwAe6c3NzlhZEujYv-178" vertex="1">
          <mxGeometry y="242" width="700" height="26" as="geometry" />
        </mxCell>
        <mxCell id="oxDfwAe6c3NzlhZEujYv-199" value="+ visitFunctionBody(ctx : FunctionBodyContext) : void" style="text;align=left;verticalAlign=top;spacingLeft=4;spacingRight=4;overflow=hidden;rotatable=0;points=[[0,0.5],[1,0.5]];portConstraint=eastwest;rounded=0;shadow=0;html=0;" parent="oxDfwAe6c3NzlhZEujYv-178" vertex="1">
          <mxGeometry y="268" width="700" height="26" as="geometry" />
        </mxCell>
        <mxCell id="oxDfwAe6c3NzlhZEujYv-189" value="+ visitSimpleDeclaration(ctx : SimpleDeclarationContext) : void" style="text;align=left;verticalAlign=top;spacingLeft=4;spacingRight=4;overflow=hidden;rotatable=0;points=[[0,0.5],[1,0.5]];portConstraint=eastwest;rounded=0;shadow=0;html=0;" parent="oxDfwAe6c3NzlhZEujYv-178" vertex="1">
          <mxGeometry y="294" width="700" height="26" as="geometry" />
        </mxCell>
        <mxCell id="oxDfwAe6c3NzlhZEujYv-190" value="+ visitClassSpecifier(ctx : ClassSpecifierContext) : void" style="text;align=left;verticalAlign=top;spacingLeft=4;spacingRight=4;overflow=hidden;rotatable=0;points=[[0,0.5],[1,0.5]];portConstraint=eastwest;rounded=0;shadow=0;html=0;" parent="oxDfwAe6c3NzlhZEujYv-178" vertex="1">
          <mxGeometry y="320" width="700" height="26" as="geometry" />
        </mxCell>
        <mxCell id="oxDfwAe6c3NzlhZEujYv-191" value="- extractNamespace(ctx : NamespaceDefinitionContext) : void" style="text;align=left;verticalAlign=top;spacingLeft=4;spacingRight=4;overflow=hidden;rotatable=0;points=[[0,0.5],[1,0.5]];portConstraint=eastwest;rounded=0;shadow=0;html=0;" parent="oxDfwAe6c3NzlhZEujYv-178" vertex="1">
          <mxGeometry y="346" width="700" height="26" as="geometry" />
        </mxCell>
        <mxCell id="oxDfwAe6c3NzlhZEujYv-192" value="- extractClass(ctx : ClassSpecifierContext) : void" style="text;align=left;verticalAlign=top;spacingLeft=4;spacingRight=4;overflow=hidden;rotatable=0;points=[[0,0.5],[1,0.5]];portConstraint=eastwest;rounded=0;shadow=0;html=0;" parent="oxDfwAe6c3NzlhZEujYv-178" vertex="1">
          <mxGeometry y="372" width="700" height="26" as="geometry" />
        </mxCell>
        <mxCell id="oxDfwAe6c3NzlhZEujYv-193" value="- extractVariablesFromClass(ctx : ClassSpecifierContext) : void" style="text;align=left;verticalAlign=top;spacingLeft=4;spacingRight=4;overflow=hidden;rotatable=0;points=[[0,0.5],[1,0.5]];portConstraint=eastwest;rounded=0;shadow=0;html=0;" parent="oxDfwAe6c3NzlhZEujYv-178" vertex="1">
          <mxGeometry y="398" width="700" height="26" as="geometry" />
        </mxCell>
        <mxCell id="oxDfwAe6c3NzlhZEujYv-194" value="- extractVariable(ctx : MemberdeclarationContext) : void" style="text;align=left;verticalAlign=top;spacingLeft=4;spacingRight=4;overflow=hidden;rotatable=0;points=[[0,0.5],[1,0.5]];portConstraint=eastwest;rounded=0;shadow=0;html=0;" parent="oxDfwAe6c3NzlhZEujYv-178" vertex="1">
          <mxGeometry y="424" width="700" height="26" as="geometry" />
        </mxCell>
        <mxCell id="oxDfwAe6c3NzlhZEujYv-200" value="- extractVariable(ctx : SimpleDeclarationContext) : void" style="text;align=left;verticalAlign=top;spacingLeft=4;spacingRight=4;overflow=hidden;rotatable=0;points=[[0,0.5],[1,0.5]];portConstraint=eastwest;rounded=0;shadow=0;html=0;" parent="oxDfwAe6c3NzlhZEujYv-178" vertex="1">
          <mxGeometry y="450" width="700" height="26" as="geometry" />
        </mxCell>
        <mxCell id="oxDfwAe6c3NzlhZEujYv-195" value="- extractVariableNames(ctx : MemberDeclaratorListContext) : void" style="text;align=left;verticalAlign=top;spacingLeft=4;spacingRight=4;overflow=hidden;rotatable=0;points=[[0,0.5],[1,0.5]];portConstraint=eastwest;rounded=0;shadow=0;html=0;" parent="oxDfwAe6c3NzlhZEujYv-178" vertex="1">
          <mxGeometry y="476" width="700" height="26" as="geometry" />
        </mxCell>
        <mxCell id="oxDfwAe6c3NzlhZEujYv-201" value="- extractVariableNames(ctx : InitDeclaratorListContext) : void" style="text;align=left;verticalAlign=top;spacingLeft=4;spacingRight=4;overflow=hidden;rotatable=0;points=[[0,0.5],[1,0.5]];portConstraint=eastwest;rounded=0;shadow=0;html=0;" parent="oxDfwAe6c3NzlhZEujYv-178" vertex="1">
          <mxGeometry y="502" width="700" height="26" as="geometry" />
        </mxCell>
        <mxCell id="oxDfwAe6c3NzlhZEujYv-196" value="- getInherits(ctx : ClassSpecifierContext) : List&lt;String" style="text;align=left;verticalAlign=top;spacingLeft=4;spacingRight=4;overflow=hidden;rotatable=0;points=[[0,0.5],[1,0.5]];portConstraint=eastwest;rounded=0;shadow=0;html=0;" parent="oxDfwAe6c3NzlhZEujYv-178" vertex="1">
          <mxGeometry y="528" width="700" height="26" as="geometry" />
        </mxCell>
        <mxCell id="oxDfwAe6c3NzlhZEujYv-197" value="- addVariables(varNames : List&lt;String&gt;, path : String, variableType : String, parent : Parent, startLine : int, endLine : int) : void" style="text;align=left;verticalAlign=top;spacingLeft=4;spacingRight=4;overflow=hidden;rotatable=0;points=[[0,0.5],[1,0.5]];portConstraint=eastwest;rounded=0;shadow=0;html=0;" parent="oxDfwAe6c3NzlhZEujYv-178" vertex="1">
          <mxGeometry y="554" width="700" height="26" as="geometry" />
        </mxCell>
        <mxCell id="oxDfwAe6c3NzlhZEujYv-202" value="- addVariable(varName : String, path : String, variableType : String, parent : Parent, startLine : int, endLine : int) : void" style="text;align=left;verticalAlign=top;spacingLeft=4;spacingRight=4;overflow=hidden;rotatable=0;points=[[0,0.5],[1,0.5]];portConstraint=eastwest;rounded=0;shadow=0;html=0;" parent="oxDfwAe6c3NzlhZEujYv-178" vertex="1">
          <mxGeometry y="580" width="700" height="26" as="geometry" />
        </mxCell>
        <mxCell id="oxDfwAe6c3NzlhZEujYv-203" value="- addFunction(name : String, path : String, parent : Parent, startLine : int, endLine : int) : void" style="text;align=left;verticalAlign=top;spacingLeft=4;spacingRight=4;overflow=hidden;rotatable=0;points=[[0,0.5],[1,0.5]];portConstraint=eastwest;rounded=0;shadow=0;html=0;" parent="oxDfwAe6c3NzlhZEujYv-178" vertex="1">
          <mxGeometry y="606" width="700" height="26" as="geometry" />
        </mxCell>
        <mxCell id="oxDfwAe6c3NzlhZEujYv-204" value="- addClass(name : String, path : String, parent : Parent, inherits : List&lt;String&gt;, startLine : int, endLine : int) : void" style="text;align=left;verticalAlign=top;spacingLeft=4;spacingRight=4;overflow=hidden;rotatable=0;points=[[0,0.5],[1,0.5]];portConstraint=eastwest;rounded=0;shadow=0;html=0;" parent="oxDfwAe6c3NzlhZEujYv-178" vertex="1">
          <mxGeometry y="632" width="700" height="26" as="geometry" />
        </mxCell>
        <mxCell id="oxDfwAe6c3NzlhZEujYv-205" value="- addNamespace(name : String, path : String, parent : Parent, startLine : int, endLine : int) : void" style="text;align=left;verticalAlign=top;spacingLeft=4;spacingRight=4;overflow=hidden;rotatable=0;points=[[0,0.5],[1,0.5]];portConstraint=eastwest;rounded=0;shadow=0;html=0;" parent="oxDfwAe6c3NzlhZEujYv-178" vertex="1">
          <mxGeometry y="658" width="700" height="26" as="geometry" />
        </mxCell>
        <mxCell id="oxDfwAe6c3NzlhZEujYv-206" value="- addFile(ctx : TranslationUnitContext) : void" style="text;align=left;verticalAlign=top;spacingLeft=4;spacingRight=4;overflow=hidden;rotatable=0;points=[[0,0.5],[1,0.5]];portConstraint=eastwest;rounded=0;shadow=0;html=0;" parent="oxDfwAe6c3NzlhZEujYv-178" vertex="1">
          <mxGeometry y="684" width="700" height="26" as="geometry" />
        </mxCell>
        <mxCell id="oxDfwAe6c3NzlhZEujYv-207" value="" style="endArrow=block;endSize=16;endFill=0;html=1;rounded=0;entryX=0.5;entryY=1;entryDx=0;entryDy=0;exitX=0.5;exitY=0;exitDx=0;exitDy=0;" parent="WIyWlLk6GJQsqaUBKTNV-1" source="zkfFHV4jXpPFQw0GAbJ--6" target="zkfFHV4jXpPFQw0GAbJ--0" edge="1">
          <mxGeometry width="160" relative="1" as="geometry">
            <mxPoint x="810" y="528" as="sourcePoint" />
            <mxPoint x="970" y="528" as="targetPoint" />
          </mxGeometry>
        </mxCell>
        <mxCell id="oxDfwAe6c3NzlhZEujYv-208" value="" style="endArrow=block;endSize=16;endFill=0;html=1;rounded=0;exitX=0.5;exitY=0;exitDx=0;exitDy=0;entryX=0.5;entryY=1;entryDx=0;entryDy=0;" parent="WIyWlLk6GJQsqaUBKTNV-1" source="zkfFHV4jXpPFQw0GAbJ--13" target="zkfFHV4jXpPFQw0GAbJ--6" edge="1">
          <mxGeometry width="160" relative="1" as="geometry">
            <mxPoint x="485" y="524" as="sourcePoint" />
            <mxPoint x="490" y="658" as="targetPoint" />
          </mxGeometry>
        </mxCell>
        <mxCell id="oxDfwAe6c3NzlhZEujYv-209" value="" style="endArrow=block;dashed=1;endFill=0;endSize=12;html=1;rounded=0;entryX=0.5;entryY=1;entryDx=0;entryDy=0;exitX=0.5;exitY=0;exitDx=0;exitDy=0;" parent="WIyWlLk6GJQsqaUBKTNV-1" source="zkfFHV4jXpPFQw0GAbJ--0" target="e4ImrdiEV3El-CMQHUWS-18" edge="1">
          <mxGeometry width="160" relative="1" as="geometry">
            <mxPoint x="810" y="528" as="sourcePoint" />
            <mxPoint x="765" y="114" as="targetPoint" />
          </mxGeometry>
        </mxCell>
        <mxCell id="oxDfwAe6c3NzlhZEujYv-210" value="" style="endArrow=block;endSize=16;endFill=0;html=1;rounded=0;entryX=0.5;entryY=1;entryDx=0;entryDy=0;exitX=0.5;exitY=0;exitDx=0;exitDy=0;" parent="WIyWlLk6GJQsqaUBKTNV-1" source="oxDfwAe6c3NzlhZEujYv-33" target="zkfFHV4jXpPFQw0GAbJ--13" edge="1">
          <mxGeometry width="160" relative="1" as="geometry">
            <mxPoint x="510" y="538" as="sourcePoint" />
            <mxPoint x="465" y="264" as="targetPoint" />
            <Array as="points">
              <mxPoint x="555" y="468" />
              <mxPoint x="765" y="468" />
            </Array>
          </mxGeometry>
        </mxCell>
        <mxCell id="oxDfwAe6c3NzlhZEujYv-211" value="" style="endArrow=block;endSize=16;endFill=0;html=1;rounded=0;entryX=0.5;entryY=1;entryDx=0;entryDy=0;exitX=0.5;exitY=0;exitDx=0;exitDy=0;" parent="WIyWlLk6GJQsqaUBKTNV-1" source="oxDfwAe6c3NzlhZEujYv-56" target="zkfFHV4jXpPFQw0GAbJ--13" edge="1">
          <mxGeometry width="160" relative="1" as="geometry">
            <mxPoint x="1010" y="558" as="sourcePoint" />
            <mxPoint x="465" y="264" as="targetPoint" />
            <Array as="points">
              <mxPoint x="985" y="468" />
              <mxPoint x="765" y="468" />
            </Array>
          </mxGeometry>
        </mxCell>
        <mxCell id="oxDfwAe6c3NzlhZEujYv-212" value="" style="endArrow=block;endSize=16;endFill=0;html=1;rounded=0;exitX=0.5;exitY=0;exitDx=0;exitDy=0;entryX=0.5;entryY=1;entryDx=0;entryDy=0;" parent="WIyWlLk6GJQsqaUBKTNV-1" source="oxDfwAe6c3NzlhZEujYv-52" target="zkfFHV4jXpPFQw0GAbJ--13" edge="1">
          <mxGeometry width="160" relative="1" as="geometry">
            <mxPoint x="775" y="378" as="sourcePoint" />
            <mxPoint x="780" y="408" as="targetPoint" />
          </mxGeometry>
        </mxCell>
        <mxCell id="oxDfwAe6c3NzlhZEujYv-215" value="" style="endArrow=block;endSize=16;endFill=0;html=1;rounded=0;exitX=0;exitY=0.5;exitDx=0;exitDy=0;entryX=1;entryY=0.5;entryDx=0;entryDy=0;" parent="WIyWlLk6GJQsqaUBKTNV-1" source="oxDfwAe6c3NzlhZEujYv-88" target="oxDfwAe6c3NzlhZEujYv-60" edge="1">
          <mxGeometry width="160" relative="1" as="geometry">
            <mxPoint x="-370" y="840" as="sourcePoint" />
            <mxPoint x="-890" y="498" as="targetPoint" />
          </mxGeometry>
        </mxCell>
        <mxCell id="4_Cokz92HO-RgEl96AFD-55" value="PathExtractor" style="swimlane;fontStyle=0;align=center;verticalAlign=top;childLayout=stackLayout;horizontal=1;startSize=26;horizontalStack=0;resizeParent=1;resizeLast=0;collapsible=1;marginBottom=0;rounded=0;shadow=1;strokeWidth=1;" parent="WIyWlLk6GJQsqaUBKTNV-1" vertex="1" collapsed="1">
          <mxGeometry x="180" y="338" width="160" height="26" as="geometry">
            <mxRectangle x="-987" y="1380" width="560" height="200" as="alternateBounds" />
          </mxGeometry>
        </mxCell>
        <mxCell id="4_Cokz92HO-RgEl96AFD-56" value="..." style="text;align=left;verticalAlign=top;spacingLeft=4;spacingRight=4;overflow=hidden;rotatable=0;points=[[0,0.5],[1,0.5]];portConstraint=eastwest;rounded=0;shadow=0;html=0;" parent="4_Cokz92HO-RgEl96AFD-55" vertex="1">
          <mxGeometry y="26" width="560" height="26" as="geometry" />
        </mxCell>
        <mxCell id="4_Cokz92HO-RgEl96AFD-57" value="" style="line;html=1;strokeWidth=1;align=left;verticalAlign=middle;spacingTop=-1;spacingLeft=3;spacingRight=3;rotatable=0;labelPosition=right;points=[];portConstraint=eastwest;" parent="4_Cokz92HO-RgEl96AFD-55" vertex="1">
          <mxGeometry y="52" width="560" height="8" as="geometry" />
        </mxCell>
        <mxCell id="4_Cokz92HO-RgEl96AFD-68" value="Use" style="endArrow=open;endSize=12;dashed=1;html=1;rounded=0;exitX=0.5;exitY=0;exitDx=0;exitDy=0;entryX=0.5;entryY=1;entryDx=0;entryDy=0;" parent="WIyWlLk6GJQsqaUBKTNV-1" source="oxDfwAe6c3NzlhZEujYv-178" target="4_Cokz92HO-RgEl96AFD-55" edge="1">
          <mxGeometry width="160" relative="1" as="geometry">
            <mxPoint x="-225" y="914" as="sourcePoint" />
            <mxPoint x="280" y="398" as="targetPoint" />
          </mxGeometry>
        </mxCell>
        <mxCell id="4_Cokz92HO-RgEl96AFD-73" value="&lt;i&gt;ElementStorageRegistry&lt;/i&gt;" style="swimlane;fontStyle=1;align=center;verticalAlign=top;childLayout=stackLayout;horizontal=1;startSize=30;horizontalStack=0;resizeParent=1;resizeParentMax=0;resizeLast=0;collapsible=1;marginBottom=0;whiteSpace=wrap;html=1;" parent="WIyWlLk6GJQsqaUBKTNV-1" vertex="1" collapsed="1">
          <mxGeometry x="680" y="900" width="170" height="30" as="geometry">
            <mxRectangle x="-470" y="1360" width="160" height="86" as="alternateBounds" />
          </mxGeometry>
        </mxCell>
        <mxCell id="4_Cokz92HO-RgEl96AFD-74" value="+ field: type" style="text;strokeColor=none;fillColor=none;align=left;verticalAlign=top;spacingLeft=4;spacingRight=4;overflow=hidden;rotatable=0;points=[[0,0.5],[1,0.5]];portConstraint=eastwest;whiteSpace=wrap;html=1;" parent="4_Cokz92HO-RgEl96AFD-73" vertex="1">
          <mxGeometry y="26" width="160" height="26" as="geometry" />
        </mxCell>
        <mxCell id="4_Cokz92HO-RgEl96AFD-75" value="" style="line;strokeWidth=1;fillColor=none;align=left;verticalAlign=middle;spacingTop=-1;spacingLeft=3;spacingRight=3;rotatable=0;labelPosition=right;points=[];portConstraint=eastwest;strokeColor=inherit;" parent="4_Cokz92HO-RgEl96AFD-73" vertex="1">
          <mxGeometry y="52" width="160" height="8" as="geometry" />
        </mxCell>
        <mxCell id="4_Cokz92HO-RgEl96AFD-76" value="+ method(type): type" style="text;strokeColor=none;fillColor=none;align=left;verticalAlign=top;spacingLeft=4;spacingRight=4;overflow=hidden;rotatable=0;points=[[0,0.5],[1,0.5]];portConstraint=eastwest;whiteSpace=wrap;html=1;" parent="4_Cokz92HO-RgEl96AFD-73" vertex="1">
          <mxGeometry y="60" width="160" height="26" as="geometry" />
        </mxCell>
        <mxCell id="4_Cokz92HO-RgEl96AFD-77" value="ElementStorage&amp;lt;T extends Element&amp;gt;" style="swimlane;fontStyle=1;align=center;verticalAlign=top;childLayout=stackLayout;horizontal=1;startSize=30;horizontalStack=0;resizeParent=1;resizeParentMax=0;resizeLast=0;collapsible=1;marginBottom=0;whiteSpace=wrap;html=1;" parent="WIyWlLk6GJQsqaUBKTNV-1" vertex="1" collapsed="1">
          <mxGeometry x="922" y="900" width="235" height="30" as="geometry">
            <mxRectangle x="-470" y="1360" width="160" height="86" as="alternateBounds" />
          </mxGeometry>
        </mxCell>
        <mxCell id="4_Cokz92HO-RgEl96AFD-78" value="+ field: type" style="text;strokeColor=none;fillColor=none;align=left;verticalAlign=top;spacingLeft=4;spacingRight=4;overflow=hidden;rotatable=0;points=[[0,0.5],[1,0.5]];portConstraint=eastwest;whiteSpace=wrap;html=1;" parent="4_Cokz92HO-RgEl96AFD-77" vertex="1">
          <mxGeometry y="26" width="160" height="26" as="geometry" />
        </mxCell>
        <mxCell id="4_Cokz92HO-RgEl96AFD-79" value="" style="line;strokeWidth=1;fillColor=none;align=left;verticalAlign=middle;spacingTop=-1;spacingLeft=3;spacingRight=3;rotatable=0;labelPosition=right;points=[];portConstraint=eastwest;strokeColor=inherit;" parent="4_Cokz92HO-RgEl96AFD-77" vertex="1">
          <mxGeometry y="52" width="160" height="8" as="geometry" />
        </mxCell>
        <mxCell id="4_Cokz92HO-RgEl96AFD-80" value="+ method(type): type" style="text;strokeColor=none;fillColor=none;align=left;verticalAlign=top;spacingLeft=4;spacingRight=4;overflow=hidden;rotatable=0;points=[[0,0.5],[1,0.5]];portConstraint=eastwest;whiteSpace=wrap;html=1;" parent="4_Cokz92HO-RgEl96AFD-77" vertex="1">
          <mxGeometry y="60" width="160" height="26" as="geometry" />
        </mxCell>
        <mxCell id="4_Cokz92HO-RgEl96AFD-96" value="JavaElementStorageRegistry" style="swimlane;fontStyle=0;align=center;verticalAlign=top;childLayout=stackLayout;horizontal=1;startSize=26;horizontalStack=0;resizeParent=1;resizeLast=0;collapsible=1;marginBottom=0;rounded=0;shadow=1;strokeWidth=1;" parent="WIyWlLk6GJQsqaUBKTNV-1" vertex="1" collapsed="1">
          <mxGeometry x="550" y="1012" width="160" height="26" as="geometry">
            <mxRectangle x="-987" y="1380" width="560" height="200" as="alternateBounds" />
          </mxGeometry>
        </mxCell>
        <mxCell id="4_Cokz92HO-RgEl96AFD-97" value="..." style="text;align=left;verticalAlign=top;spacingLeft=4;spacingRight=4;overflow=hidden;rotatable=0;points=[[0,0.5],[1,0.5]];portConstraint=eastwest;rounded=0;shadow=0;html=0;" parent="4_Cokz92HO-RgEl96AFD-96" vertex="1">
          <mxGeometry y="26" width="560" height="26" as="geometry" />
        </mxCell>
        <mxCell id="4_Cokz92HO-RgEl96AFD-98" value="" style="line;html=1;strokeWidth=1;align=left;verticalAlign=middle;spacingTop=-1;spacingLeft=3;spacingRight=3;rotatable=0;labelPosition=right;points=[];portConstraint=eastwest;" parent="4_Cokz92HO-RgEl96AFD-96" vertex="1">
          <mxGeometry y="52" width="560" height="8" as="geometry" />
        </mxCell>
        <mxCell id="4_Cokz92HO-RgEl96AFD-99" value="Python3ElementStorageRegistry" style="swimlane;fontStyle=0;align=center;verticalAlign=top;childLayout=stackLayout;horizontal=1;startSize=30;horizontalStack=0;resizeParent=1;resizeLast=0;collapsible=1;marginBottom=0;rounded=0;shadow=1;strokeWidth=1;" parent="WIyWlLk6GJQsqaUBKTNV-1" vertex="1" collapsed="1">
          <mxGeometry x="665" y="1062" width="200" height="30" as="geometry">
            <mxRectangle x="-987" y="1380" width="560" height="200" as="alternateBounds" />
          </mxGeometry>
        </mxCell>
        <mxCell id="4_Cokz92HO-RgEl96AFD-100" value="..." style="text;align=left;verticalAlign=top;spacingLeft=4;spacingRight=4;overflow=hidden;rotatable=0;points=[[0,0.5],[1,0.5]];portConstraint=eastwest;rounded=0;shadow=0;html=0;" parent="4_Cokz92HO-RgEl96AFD-99" vertex="1">
          <mxGeometry y="26" width="560" height="26" as="geometry" />
        </mxCell>
        <mxCell id="4_Cokz92HO-RgEl96AFD-101" value="" style="line;html=1;strokeWidth=1;align=left;verticalAlign=middle;spacingTop=-1;spacingLeft=3;spacingRight=3;rotatable=0;labelPosition=right;points=[];portConstraint=eastwest;" parent="4_Cokz92HO-RgEl96AFD-99" vertex="1">
          <mxGeometry y="52" width="560" height="8" as="geometry" />
        </mxCell>
        <mxCell id="4_Cokz92HO-RgEl96AFD-105" value="CppElementStorageRegistry" style="swimlane;fontStyle=0;align=center;verticalAlign=top;childLayout=stackLayout;horizontal=1;startSize=26;horizontalStack=0;resizeParent=1;resizeLast=0;collapsible=1;marginBottom=0;rounded=0;shadow=1;strokeWidth=1;" parent="WIyWlLk6GJQsqaUBKTNV-1" vertex="1" collapsed="1">
          <mxGeometry x="820" y="1012" width="160" height="26" as="geometry">
            <mxRectangle x="-987" y="1380" width="560" height="200" as="alternateBounds" />
          </mxGeometry>
        </mxCell>
        <mxCell id="4_Cokz92HO-RgEl96AFD-106" value="..." style="text;align=left;verticalAlign=top;spacingLeft=4;spacingRight=4;overflow=hidden;rotatable=0;points=[[0,0.5],[1,0.5]];portConstraint=eastwest;rounded=0;shadow=0;html=0;" parent="4_Cokz92HO-RgEl96AFD-105" vertex="1">
          <mxGeometry y="26" width="560" height="26" as="geometry" />
        </mxCell>
        <mxCell id="4_Cokz92HO-RgEl96AFD-107" value="" style="line;html=1;strokeWidth=1;align=left;verticalAlign=middle;spacingTop=-1;spacingLeft=3;spacingRight=3;rotatable=0;labelPosition=right;points=[];portConstraint=eastwest;" parent="4_Cokz92HO-RgEl96AFD-105" vertex="1">
          <mxGeometry y="52" width="560" height="8" as="geometry" />
        </mxCell>
        <mxCell id="4_Cokz92HO-RgEl96AFD-108" value="" style="endArrow=block;endSize=16;endFill=0;html=1;rounded=0;entryX=0.5;entryY=1;entryDx=0;entryDy=0;exitX=0.5;exitY=0;exitDx=0;exitDy=0;" parent="WIyWlLk6GJQsqaUBKTNV-1" source="4_Cokz92HO-RgEl96AFD-96" target="4_Cokz92HO-RgEl96AFD-73" edge="1">
          <mxGeometry width="160" relative="1" as="geometry">
            <mxPoint x="885" y="1252" as="sourcePoint" />
            <mxPoint x="1045" y="1252" as="targetPoint" />
          </mxGeometry>
        </mxCell>
        <mxCell id="4_Cokz92HO-RgEl96AFD-109" value="" style="endArrow=block;endSize=16;endFill=0;html=1;rounded=0;exitX=0.5;exitY=0;exitDx=0;exitDy=0;entryX=0.5;entryY=1;entryDx=0;entryDy=0;" parent="WIyWlLk6GJQsqaUBKTNV-1" source="4_Cokz92HO-RgEl96AFD-99" target="4_Cokz92HO-RgEl96AFD-73" edge="1">
          <mxGeometry width="160" relative="1" as="geometry">
            <mxPoint x="970" y="1242" as="sourcePoint" />
            <mxPoint x="1035" y="1112" as="targetPoint" />
          </mxGeometry>
        </mxCell>
        <mxCell id="4_Cokz92HO-RgEl96AFD-110" value="" style="endArrow=block;endSize=16;endFill=0;html=1;rounded=0;exitX=0.5;exitY=0;exitDx=0;exitDy=0;entryX=0.5;entryY=1;entryDx=0;entryDy=0;" parent="WIyWlLk6GJQsqaUBKTNV-1" source="4_Cokz92HO-RgEl96AFD-105" target="4_Cokz92HO-RgEl96AFD-73" edge="1">
          <mxGeometry width="160" relative="1" as="geometry">
            <mxPoint x="1165" y="1242" as="sourcePoint" />
            <mxPoint x="1040" y="1092" as="targetPoint" />
          </mxGeometry>
        </mxCell>
        <mxCell id="4_Cokz92HO-RgEl96AFD-114" value="&lt;i&gt;CommentMatcher&lt;/i&gt;" style="swimlane;fontStyle=1;align=center;verticalAlign=top;childLayout=stackLayout;horizontal=1;startSize=30;horizontalStack=0;resizeParent=1;resizeParentMax=0;resizeLast=0;collapsible=1;marginBottom=0;whiteSpace=wrap;html=1;" parent="WIyWlLk6GJQsqaUBKTNV-1" vertex="1" collapsed="1">
          <mxGeometry x="240" y="900" width="130" height="30" as="geometry">
            <mxRectangle x="-470" y="1310" width="160" height="86" as="alternateBounds" />
          </mxGeometry>
        </mxCell>
        <mxCell id="4_Cokz92HO-RgEl96AFD-115" value="+ field: type" style="text;strokeColor=none;fillColor=none;align=left;verticalAlign=top;spacingLeft=4;spacingRight=4;overflow=hidden;rotatable=0;points=[[0,0.5],[1,0.5]];portConstraint=eastwest;whiteSpace=wrap;html=1;" parent="4_Cokz92HO-RgEl96AFD-114" vertex="1">
          <mxGeometry y="26" width="160" height="26" as="geometry" />
        </mxCell>
        <mxCell id="4_Cokz92HO-RgEl96AFD-116" value="" style="line;strokeWidth=1;fillColor=none;align=left;verticalAlign=middle;spacingTop=-1;spacingLeft=3;spacingRight=3;rotatable=0;labelPosition=right;points=[];portConstraint=eastwest;strokeColor=inherit;" parent="4_Cokz92HO-RgEl96AFD-114" vertex="1">
          <mxGeometry y="52" width="160" height="8" as="geometry" />
        </mxCell>
        <mxCell id="4_Cokz92HO-RgEl96AFD-117" value="+ method(type): type" style="text;strokeColor=none;fillColor=none;align=left;verticalAlign=top;spacingLeft=4;spacingRight=4;overflow=hidden;rotatable=0;points=[[0,0.5],[1,0.5]];portConstraint=eastwest;whiteSpace=wrap;html=1;" parent="4_Cokz92HO-RgEl96AFD-114" vertex="1">
          <mxGeometry y="60" width="160" height="26" as="geometry" />
        </mxCell>
        <mxCell id="4_Cokz92HO-RgEl96AFD-118" value="JavaCommentMatcher" style="swimlane;fontStyle=0;align=center;verticalAlign=top;childLayout=stackLayout;horizontal=1;startSize=26;horizontalStack=0;resizeParent=1;resizeLast=0;collapsible=1;marginBottom=0;rounded=0;shadow=1;strokeWidth=1;" parent="WIyWlLk6GJQsqaUBKTNV-1" vertex="1" collapsed="1">
          <mxGeometry x="100" y="822" width="160" height="26" as="geometry">
            <mxRectangle x="-987" y="1380" width="560" height="200" as="alternateBounds" />
          </mxGeometry>
        </mxCell>
        <mxCell id="4_Cokz92HO-RgEl96AFD-119" value="..." style="text;align=left;verticalAlign=top;spacingLeft=4;spacingRight=4;overflow=hidden;rotatable=0;points=[[0,0.5],[1,0.5]];portConstraint=eastwest;rounded=0;shadow=0;html=0;" parent="4_Cokz92HO-RgEl96AFD-118" vertex="1">
          <mxGeometry y="26" width="560" height="26" as="geometry" />
        </mxCell>
        <mxCell id="4_Cokz92HO-RgEl96AFD-120" value="" style="line;html=1;strokeWidth=1;align=left;verticalAlign=middle;spacingTop=-1;spacingLeft=3;spacingRight=3;rotatable=0;labelPosition=right;points=[];portConstraint=eastwest;" parent="4_Cokz92HO-RgEl96AFD-118" vertex="1">
          <mxGeometry y="52" width="560" height="8" as="geometry" />
        </mxCell>
        <mxCell id="4_Cokz92HO-RgEl96AFD-121" value="Python3CommentMatcher" style="swimlane;fontStyle=0;align=center;verticalAlign=top;childLayout=stackLayout;horizontal=1;startSize=26;horizontalStack=0;resizeParent=1;resizeLast=0;collapsible=1;marginBottom=0;rounded=0;shadow=1;strokeWidth=1;" parent="WIyWlLk6GJQsqaUBKTNV-1" vertex="1" collapsed="1">
          <mxGeometry x="225" y="778" width="160" height="26" as="geometry">
            <mxRectangle x="-987" y="1380" width="560" height="200" as="alternateBounds" />
          </mxGeometry>
        </mxCell>
        <mxCell id="4_Cokz92HO-RgEl96AFD-122" value="..." style="text;align=left;verticalAlign=top;spacingLeft=4;spacingRight=4;overflow=hidden;rotatable=0;points=[[0,0.5],[1,0.5]];portConstraint=eastwest;rounded=0;shadow=0;html=0;" parent="4_Cokz92HO-RgEl96AFD-121" vertex="1">
          <mxGeometry y="26" width="560" height="26" as="geometry" />
        </mxCell>
        <mxCell id="4_Cokz92HO-RgEl96AFD-123" value="" style="line;html=1;strokeWidth=1;align=left;verticalAlign=middle;spacingTop=-1;spacingLeft=3;spacingRight=3;rotatable=0;labelPosition=right;points=[];portConstraint=eastwest;" parent="4_Cokz92HO-RgEl96AFD-121" vertex="1">
          <mxGeometry y="52" width="560" height="8" as="geometry" />
        </mxCell>
        <mxCell id="4_Cokz92HO-RgEl96AFD-124" value="CppCommentMatcher" style="swimlane;fontStyle=0;align=center;verticalAlign=top;childLayout=stackLayout;horizontal=1;startSize=26;horizontalStack=0;resizeParent=1;resizeLast=0;collapsible=1;marginBottom=0;rounded=0;shadow=1;strokeWidth=1;" parent="WIyWlLk6GJQsqaUBKTNV-1" vertex="1" collapsed="1">
          <mxGeometry x="350" y="822" width="160" height="26" as="geometry">
            <mxRectangle x="-987" y="1380" width="560" height="200" as="alternateBounds" />
          </mxGeometry>
        </mxCell>
        <mxCell id="4_Cokz92HO-RgEl96AFD-125" value="..." style="text;align=left;verticalAlign=top;spacingLeft=4;spacingRight=4;overflow=hidden;rotatable=0;points=[[0,0.5],[1,0.5]];portConstraint=eastwest;rounded=0;shadow=0;html=0;" parent="4_Cokz92HO-RgEl96AFD-124" vertex="1">
          <mxGeometry y="26" width="560" height="26" as="geometry" />
        </mxCell>
        <mxCell id="4_Cokz92HO-RgEl96AFD-126" value="" style="line;html=1;strokeWidth=1;align=left;verticalAlign=middle;spacingTop=-1;spacingLeft=3;spacingRight=3;rotatable=0;labelPosition=right;points=[];portConstraint=eastwest;" parent="4_Cokz92HO-RgEl96AFD-124" vertex="1">
          <mxGeometry y="52" width="560" height="8" as="geometry" />
        </mxCell>
        <mxCell id="4_Cokz92HO-RgEl96AFD-127" value="" style="endArrow=block;endSize=16;endFill=0;html=1;rounded=0;entryX=0.5;entryY=0;entryDx=0;entryDy=0;exitX=0.5;exitY=1;exitDx=0;exitDy=0;" parent="WIyWlLk6GJQsqaUBKTNV-1" source="4_Cokz92HO-RgEl96AFD-118" target="4_Cokz92HO-RgEl96AFD-114" edge="1">
          <mxGeometry width="160" relative="1" as="geometry">
            <mxPoint x="-439.5" y="1932" as="sourcePoint" />
            <mxPoint x="-156.5" y="1731" as="targetPoint" />
          </mxGeometry>
        </mxCell>
        <mxCell id="4_Cokz92HO-RgEl96AFD-128" value="" style="endArrow=block;endSize=16;endFill=0;html=1;rounded=0;entryX=0.5;entryY=0;entryDx=0;entryDy=0;exitX=0.5;exitY=1;exitDx=0;exitDy=0;" parent="WIyWlLk6GJQsqaUBKTNV-1" source="4_Cokz92HO-RgEl96AFD-121" target="4_Cokz92HO-RgEl96AFD-114" edge="1">
          <mxGeometry width="160" relative="1" as="geometry">
            <mxPoint x="174.5" y="1542" as="sourcePoint" />
            <mxPoint x="385.5" y="1352" as="targetPoint" />
          </mxGeometry>
        </mxCell>
        <mxCell id="4_Cokz92HO-RgEl96AFD-129" value="" style="endArrow=block;endSize=16;endFill=0;html=1;rounded=0;entryX=0.5;entryY=0;entryDx=0;entryDy=0;exitX=0.5;exitY=1;exitDx=0;exitDy=0;" parent="WIyWlLk6GJQsqaUBKTNV-1" source="4_Cokz92HO-RgEl96AFD-124" target="4_Cokz92HO-RgEl96AFD-114" edge="1">
          <mxGeometry width="160" relative="1" as="geometry">
            <mxPoint x="360.5" y="1542" as="sourcePoint" />
            <mxPoint x="385.5" y="1352" as="targetPoint" />
          </mxGeometry>
        </mxCell>
        <mxCell id="4_Cokz92HO-RgEl96AFD-130" value="Use" style="endArrow=open;endSize=12;dashed=1;html=1;rounded=0;entryX=1;entryY=0.5;entryDx=0;entryDy=0;exitX=0;exitY=0.5;exitDx=0;exitDy=0;" parent="WIyWlLk6GJQsqaUBKTNV-1" source="4_Cokz92HO-RgEl96AFD-73" target="4_Cokz92HO-RgEl96AFD-114" edge="1">
          <mxGeometry width="160" relative="1" as="geometry">
            <mxPoint x="937.5" y="1047" as="sourcePoint" />
            <mxPoint x="650" y="912" as="targetPoint" />
          </mxGeometry>
        </mxCell>
        <mxCell id="4_Cokz92HO-RgEl96AFD-166" value="ModelMapper" style="swimlane;fontStyle=1;align=center;verticalAlign=top;childLayout=stackLayout;horizontal=1;startSize=30;horizontalStack=0;resizeParent=1;resizeParentMax=0;resizeLast=0;collapsible=1;marginBottom=0;whiteSpace=wrap;html=1;" parent="WIyWlLk6GJQsqaUBKTNV-1" vertex="1" collapsed="1">
          <mxGeometry x="1200" y="488" width="130" height="30" as="geometry">
            <mxRectangle x="940" y="450" width="160" height="86" as="alternateBounds" />
          </mxGeometry>
        </mxCell>
        <mxCell id="4_Cokz92HO-RgEl96AFD-167" value="+ field: type" style="text;strokeColor=none;fillColor=none;align=left;verticalAlign=top;spacingLeft=4;spacingRight=4;overflow=hidden;rotatable=0;points=[[0,0.5],[1,0.5]];portConstraint=eastwest;whiteSpace=wrap;html=1;" parent="4_Cokz92HO-RgEl96AFD-166" vertex="1">
          <mxGeometry y="26" width="160" height="26" as="geometry" />
        </mxCell>
        <mxCell id="4_Cokz92HO-RgEl96AFD-168" value="" style="line;strokeWidth=1;fillColor=none;align=left;verticalAlign=middle;spacingTop=-1;spacingLeft=3;spacingRight=3;rotatable=0;labelPosition=right;points=[];portConstraint=eastwest;strokeColor=inherit;" parent="4_Cokz92HO-RgEl96AFD-166" vertex="1">
          <mxGeometry y="52" width="160" height="8" as="geometry" />
        </mxCell>
        <mxCell id="4_Cokz92HO-RgEl96AFD-169" value="+ method(type): type" style="text;strokeColor=none;fillColor=none;align=left;verticalAlign=top;spacingLeft=4;spacingRight=4;overflow=hidden;rotatable=0;points=[[0,0.5],[1,0.5]];portConstraint=eastwest;whiteSpace=wrap;html=1;" parent="4_Cokz92HO-RgEl96AFD-166" vertex="1">
          <mxGeometry y="60" width="160" height="26" as="geometry" />
        </mxCell>
        <mxCell id="4_Cokz92HO-RgEl96AFD-175" value="CodeItemMapperCollection" style="swimlane;fontStyle=1;align=center;verticalAlign=top;childLayout=stackLayout;horizontal=1;startSize=30;horizontalStack=0;resizeParent=1;resizeParentMax=0;resizeLast=0;collapsible=1;marginBottom=0;whiteSpace=wrap;html=1;" parent="WIyWlLk6GJQsqaUBKTNV-1" vertex="1" collapsed="1">
          <mxGeometry x="1490" y="488" width="165" height="30" as="geometry">
            <mxRectangle x="940" y="450" width="160" height="86" as="alternateBounds" />
          </mxGeometry>
        </mxCell>
        <mxCell id="4_Cokz92HO-RgEl96AFD-176" value="+ field: type" style="text;strokeColor=none;fillColor=none;align=left;verticalAlign=top;spacingLeft=4;spacingRight=4;overflow=hidden;rotatable=0;points=[[0,0.5],[1,0.5]];portConstraint=eastwest;whiteSpace=wrap;html=1;" parent="4_Cokz92HO-RgEl96AFD-175" vertex="1">
          <mxGeometry y="26" width="160" height="26" as="geometry" />
        </mxCell>
        <mxCell id="4_Cokz92HO-RgEl96AFD-177" value="" style="line;strokeWidth=1;fillColor=none;align=left;verticalAlign=middle;spacingTop=-1;spacingLeft=3;spacingRight=3;rotatable=0;labelPosition=right;points=[];portConstraint=eastwest;strokeColor=inherit;" parent="4_Cokz92HO-RgEl96AFD-175" vertex="1">
          <mxGeometry y="52" width="160" height="8" as="geometry" />
        </mxCell>
        <mxCell id="4_Cokz92HO-RgEl96AFD-178" value="+ method(type): type" style="text;strokeColor=none;fillColor=none;align=left;verticalAlign=top;spacingLeft=4;spacingRight=4;overflow=hidden;rotatable=0;points=[[0,0.5],[1,0.5]];portConstraint=eastwest;whiteSpace=wrap;html=1;" parent="4_Cokz92HO-RgEl96AFD-175" vertex="1">
          <mxGeometry y="60" width="160" height="26" as="geometry" />
        </mxCell>
        <mxCell id="4_Cokz92HO-RgEl96AFD-179" value="JavaModelMapper" style="swimlane;fontStyle=0;align=center;verticalAlign=top;childLayout=stackLayout;horizontal=1;startSize=26;horizontalStack=0;resizeParent=1;resizeLast=0;collapsible=1;marginBottom=0;rounded=0;shadow=1;strokeWidth=1;" parent="WIyWlLk6GJQsqaUBKTNV-1" vertex="1" collapsed="1">
          <mxGeometry x="1050" y="674" width="160" height="26" as="geometry">
            <mxRectangle x="-987" y="1380" width="560" height="200" as="alternateBounds" />
          </mxGeometry>
        </mxCell>
        <mxCell id="4_Cokz92HO-RgEl96AFD-180" value="..." style="text;align=left;verticalAlign=top;spacingLeft=4;spacingRight=4;overflow=hidden;rotatable=0;points=[[0,0.5],[1,0.5]];portConstraint=eastwest;rounded=0;shadow=0;html=0;" parent="4_Cokz92HO-RgEl96AFD-179" vertex="1">
          <mxGeometry y="26" width="560" height="26" as="geometry" />
        </mxCell>
        <mxCell id="4_Cokz92HO-RgEl96AFD-181" value="" style="line;html=1;strokeWidth=1;align=left;verticalAlign=middle;spacingTop=-1;spacingLeft=3;spacingRight=3;rotatable=0;labelPosition=right;points=[];portConstraint=eastwest;" parent="4_Cokz92HO-RgEl96AFD-179" vertex="1">
          <mxGeometry y="52" width="560" height="8" as="geometry" />
        </mxCell>
        <mxCell id="4_Cokz92HO-RgEl96AFD-182" value="Python3ModelMapper" style="swimlane;fontStyle=0;align=center;verticalAlign=top;childLayout=stackLayout;horizontal=1;startSize=26;horizontalStack=0;resizeParent=1;resizeLast=0;collapsible=1;marginBottom=0;rounded=0;shadow=1;strokeWidth=1;" parent="WIyWlLk6GJQsqaUBKTNV-1" vertex="1" collapsed="1">
          <mxGeometry x="1185" y="718" width="160" height="26" as="geometry">
            <mxRectangle x="-987" y="1380" width="560" height="200" as="alternateBounds" />
          </mxGeometry>
        </mxCell>
        <mxCell id="4_Cokz92HO-RgEl96AFD-183" value="..." style="text;align=left;verticalAlign=top;spacingLeft=4;spacingRight=4;overflow=hidden;rotatable=0;points=[[0,0.5],[1,0.5]];portConstraint=eastwest;rounded=0;shadow=0;html=0;" parent="4_Cokz92HO-RgEl96AFD-182" vertex="1">
          <mxGeometry y="26" width="560" height="26" as="geometry" />
        </mxCell>
        <mxCell id="4_Cokz92HO-RgEl96AFD-184" value="" style="line;html=1;strokeWidth=1;align=left;verticalAlign=middle;spacingTop=-1;spacingLeft=3;spacingRight=3;rotatable=0;labelPosition=right;points=[];portConstraint=eastwest;" parent="4_Cokz92HO-RgEl96AFD-182" vertex="1">
          <mxGeometry y="52" width="560" height="8" as="geometry" />
        </mxCell>
        <mxCell id="4_Cokz92HO-RgEl96AFD-185" value="CppModelMapper" style="swimlane;fontStyle=0;align=center;verticalAlign=top;childLayout=stackLayout;horizontal=1;startSize=26;horizontalStack=0;resizeParent=1;resizeLast=0;collapsible=1;marginBottom=0;rounded=0;shadow=1;strokeWidth=1;" parent="WIyWlLk6GJQsqaUBKTNV-1" vertex="1" collapsed="1">
          <mxGeometry x="1330" y="674" width="160" height="26" as="geometry">
            <mxRectangle x="-987" y="1380" width="560" height="200" as="alternateBounds" />
          </mxGeometry>
        </mxCell>
        <mxCell id="4_Cokz92HO-RgEl96AFD-186" value="..." style="text;align=left;verticalAlign=top;spacingLeft=4;spacingRight=4;overflow=hidden;rotatable=0;points=[[0,0.5],[1,0.5]];portConstraint=eastwest;rounded=0;shadow=0;html=0;" parent="4_Cokz92HO-RgEl96AFD-185" vertex="1">
          <mxGeometry y="26" width="560" height="26" as="geometry" />
        </mxCell>
        <mxCell id="4_Cokz92HO-RgEl96AFD-187" value="" style="line;html=1;strokeWidth=1;align=left;verticalAlign=middle;spacingTop=-1;spacingLeft=3;spacingRight=3;rotatable=0;labelPosition=right;points=[];portConstraint=eastwest;" parent="4_Cokz92HO-RgEl96AFD-185" vertex="1">
          <mxGeometry y="52" width="560" height="8" as="geometry" />
        </mxCell>
        <mxCell id="4_Cokz92HO-RgEl96AFD-188" value="" style="endArrow=block;endSize=16;endFill=0;html=1;rounded=0;entryX=0.5;entryY=1;entryDx=0;entryDy=0;exitX=0.5;exitY=0;exitDx=0;exitDy=0;" parent="WIyWlLk6GJQsqaUBKTNV-1" source="4_Cokz92HO-RgEl96AFD-179" target="4_Cokz92HO-RgEl96AFD-166" edge="1">
          <mxGeometry width="160" relative="1" as="geometry">
            <mxPoint x="1280" y="964" as="sourcePoint" />
            <mxPoint x="1440" y="964" as="targetPoint" />
          </mxGeometry>
        </mxCell>
        <mxCell id="4_Cokz92HO-RgEl96AFD-189" value="" style="endArrow=block;endSize=16;endFill=0;html=1;rounded=0;exitX=0.5;exitY=0;exitDx=0;exitDy=0;entryX=0.5;entryY=1;entryDx=0;entryDy=0;" parent="WIyWlLk6GJQsqaUBKTNV-1" source="4_Cokz92HO-RgEl96AFD-182" target="4_Cokz92HO-RgEl96AFD-166" edge="1">
          <mxGeometry width="160" relative="1" as="geometry">
            <mxPoint x="1480" y="824" as="sourcePoint" />
            <mxPoint x="1720" y="714" as="targetPoint" />
          </mxGeometry>
        </mxCell>
        <mxCell id="4_Cokz92HO-RgEl96AFD-190" value="" style="endArrow=block;endSize=16;endFill=0;html=1;rounded=0;exitX=0.5;exitY=0;exitDx=0;exitDy=0;entryX=0.5;entryY=1;entryDx=0;entryDy=0;" parent="WIyWlLk6GJQsqaUBKTNV-1" source="4_Cokz92HO-RgEl96AFD-185" target="4_Cokz92HO-RgEl96AFD-166" edge="1">
          <mxGeometry width="160" relative="1" as="geometry">
            <mxPoint x="1650" y="824" as="sourcePoint" />
            <mxPoint x="1680" y="744" as="targetPoint" />
          </mxGeometry>
        </mxCell>
        <mxCell id="4_Cokz92HO-RgEl96AFD-194" value="JavaCodeItemMapperCollection" style="swimlane;fontStyle=0;align=center;verticalAlign=top;childLayout=stackLayout;horizontal=1;startSize=26;horizontalStack=0;resizeParent=1;resizeLast=0;collapsible=1;marginBottom=0;rounded=0;shadow=1;strokeWidth=1;" parent="WIyWlLk6GJQsqaUBKTNV-1" vertex="1" collapsed="1">
          <mxGeometry x="1310" y="388" width="180" height="26" as="geometry">
            <mxRectangle x="-987" y="1380" width="560" height="200" as="alternateBounds" />
          </mxGeometry>
        </mxCell>
        <mxCell id="4_Cokz92HO-RgEl96AFD-195" value="..." style="text;align=left;verticalAlign=top;spacingLeft=4;spacingRight=4;overflow=hidden;rotatable=0;points=[[0,0.5],[1,0.5]];portConstraint=eastwest;rounded=0;shadow=0;html=0;" parent="4_Cokz92HO-RgEl96AFD-194" vertex="1">
          <mxGeometry y="26" width="560" height="26" as="geometry" />
        </mxCell>
        <mxCell id="4_Cokz92HO-RgEl96AFD-196" value="" style="line;html=1;strokeWidth=1;align=left;verticalAlign=middle;spacingTop=-1;spacingLeft=3;spacingRight=3;rotatable=0;labelPosition=right;points=[];portConstraint=eastwest;" parent="4_Cokz92HO-RgEl96AFD-194" vertex="1">
          <mxGeometry y="52" width="560" height="8" as="geometry" />
        </mxCell>
        <mxCell id="4_Cokz92HO-RgEl96AFD-197" value="Python3CodeItemMapperCollection" style="swimlane;fontStyle=0;align=center;verticalAlign=top;childLayout=stackLayout;horizontal=1;startSize=26;horizontalStack=0;resizeParent=1;resizeLast=0;collapsible=1;marginBottom=0;rounded=0;shadow=1;strokeWidth=1;" parent="WIyWlLk6GJQsqaUBKTNV-1" vertex="1" collapsed="1">
          <mxGeometry x="1472.5" y="338" width="200" height="26" as="geometry">
            <mxRectangle x="-987" y="1380" width="560" height="200" as="alternateBounds" />
          </mxGeometry>
        </mxCell>
        <mxCell id="4_Cokz92HO-RgEl96AFD-198" value="..." style="text;align=left;verticalAlign=top;spacingLeft=4;spacingRight=4;overflow=hidden;rotatable=0;points=[[0,0.5],[1,0.5]];portConstraint=eastwest;rounded=0;shadow=0;html=0;" parent="4_Cokz92HO-RgEl96AFD-197" vertex="1">
          <mxGeometry y="26" width="560" height="26" as="geometry" />
        </mxCell>
        <mxCell id="4_Cokz92HO-RgEl96AFD-199" value="" style="line;html=1;strokeWidth=1;align=left;verticalAlign=middle;spacingTop=-1;spacingLeft=3;spacingRight=3;rotatable=0;labelPosition=right;points=[];portConstraint=eastwest;" parent="4_Cokz92HO-RgEl96AFD-197" vertex="1">
          <mxGeometry y="52" width="560" height="8" as="geometry" />
        </mxCell>
        <mxCell id="4_Cokz92HO-RgEl96AFD-200" value="CppCodeItemMapperCollection" style="swimlane;fontStyle=0;align=center;verticalAlign=top;childLayout=stackLayout;horizontal=1;startSize=26;horizontalStack=0;resizeParent=1;resizeLast=0;collapsible=1;marginBottom=0;rounded=0;shadow=1;strokeWidth=1;" parent="WIyWlLk6GJQsqaUBKTNV-1" vertex="1" collapsed="1">
          <mxGeometry x="1655" y="386.5" width="180" height="26" as="geometry">
            <mxRectangle x="-987" y="1380" width="560" height="200" as="alternateBounds" />
          </mxGeometry>
        </mxCell>
        <mxCell id="4_Cokz92HO-RgEl96AFD-201" value="..." style="text;align=left;verticalAlign=top;spacingLeft=4;spacingRight=4;overflow=hidden;rotatable=0;points=[[0,0.5],[1,0.5]];portConstraint=eastwest;rounded=0;shadow=0;html=0;" parent="4_Cokz92HO-RgEl96AFD-200" vertex="1">
          <mxGeometry y="26" width="560" height="26" as="geometry" />
        </mxCell>
        <mxCell id="4_Cokz92HO-RgEl96AFD-202" value="" style="line;html=1;strokeWidth=1;align=left;verticalAlign=middle;spacingTop=-1;spacingLeft=3;spacingRight=3;rotatable=0;labelPosition=right;points=[];portConstraint=eastwest;" parent="4_Cokz92HO-RgEl96AFD-200" vertex="1">
          <mxGeometry y="52" width="560" height="8" as="geometry" />
        </mxCell>
        <mxCell id="4_Cokz92HO-RgEl96AFD-203" value="" style="endArrow=block;endSize=16;endFill=0;html=1;rounded=0;exitX=0.5;exitY=1;exitDx=0;exitDy=0;entryX=0.5;entryY=0;entryDx=0;entryDy=0;" parent="WIyWlLk6GJQsqaUBKTNV-1" source="4_Cokz92HO-RgEl96AFD-194" target="4_Cokz92HO-RgEl96AFD-175" edge="1">
          <mxGeometry width="160" relative="1" as="geometry">
            <mxPoint x="1820" y="824" as="sourcePoint" />
            <mxPoint x="1655" y="684" as="targetPoint" />
          </mxGeometry>
        </mxCell>
        <mxCell id="4_Cokz92HO-RgEl96AFD-204" value="" style="endArrow=block;endSize=16;endFill=0;html=1;rounded=0;exitX=0.5;exitY=1;exitDx=0;exitDy=0;entryX=0.5;entryY=0;entryDx=0;entryDy=0;" parent="WIyWlLk6GJQsqaUBKTNV-1" source="4_Cokz92HO-RgEl96AFD-197" target="4_Cokz92HO-RgEl96AFD-175" edge="1">
          <mxGeometry width="160" relative="1" as="geometry">
            <mxPoint x="2000" y="824" as="sourcePoint" />
            <mxPoint x="2180" y="714" as="targetPoint" />
          </mxGeometry>
        </mxCell>
        <mxCell id="4_Cokz92HO-RgEl96AFD-205" value="" style="endArrow=block;endSize=16;endFill=0;html=1;rounded=0;exitX=0.5;exitY=1;exitDx=0;exitDy=0;entryX=0.5;entryY=0;entryDx=0;entryDy=0;" parent="WIyWlLk6GJQsqaUBKTNV-1" source="4_Cokz92HO-RgEl96AFD-200" target="4_Cokz92HO-RgEl96AFD-175" edge="1">
          <mxGeometry width="160" relative="1" as="geometry">
            <mxPoint x="2170" y="824" as="sourcePoint" />
            <mxPoint x="2170" y="684" as="targetPoint" />
          </mxGeometry>
        </mxCell>
        <mxCell id="4_Cokz92HO-RgEl96AFD-206" value="&lt;i&gt;AbstractCodeItemMapper&lt;/i&gt;" style="swimlane;fontStyle=1;align=center;verticalAlign=top;childLayout=stackLayout;horizontal=1;startSize=30;horizontalStack=0;resizeParent=1;resizeParentMax=0;resizeLast=0;collapsible=1;marginBottom=0;whiteSpace=wrap;html=1;" parent="WIyWlLk6GJQsqaUBKTNV-1" vertex="1" collapsed="1">
          <mxGeometry x="1890" y="488" width="200" height="30" as="geometry">
            <mxRectangle x="940" y="450" width="160" height="86" as="alternateBounds" />
          </mxGeometry>
        </mxCell>
        <mxCell id="4_Cokz92HO-RgEl96AFD-207" value="+ field: type" style="text;strokeColor=none;fillColor=none;align=left;verticalAlign=top;spacingLeft=4;spacingRight=4;overflow=hidden;rotatable=0;points=[[0,0.5],[1,0.5]];portConstraint=eastwest;whiteSpace=wrap;html=1;" parent="4_Cokz92HO-RgEl96AFD-206" vertex="1">
          <mxGeometry y="26" width="160" height="26" as="geometry" />
        </mxCell>
        <mxCell id="4_Cokz92HO-RgEl96AFD-208" value="" style="line;strokeWidth=1;fillColor=none;align=left;verticalAlign=middle;spacingTop=-1;spacingLeft=3;spacingRight=3;rotatable=0;labelPosition=right;points=[];portConstraint=eastwest;strokeColor=inherit;" parent="4_Cokz92HO-RgEl96AFD-206" vertex="1">
          <mxGeometry y="52" width="160" height="8" as="geometry" />
        </mxCell>
        <mxCell id="4_Cokz92HO-RgEl96AFD-209" value="+ method(type): type" style="text;strokeColor=none;fillColor=none;align=left;verticalAlign=top;spacingLeft=4;spacingRight=4;overflow=hidden;rotatable=0;points=[[0,0.5],[1,0.5]];portConstraint=eastwest;whiteSpace=wrap;html=1;" parent="4_Cokz92HO-RgEl96AFD-206" vertex="1">
          <mxGeometry y="60" width="160" height="26" as="geometry" />
        </mxCell>
        <mxCell id="4_Cokz92HO-RgEl96AFD-211" value="&lt;i&gt;AbstractJavaCodeItemMapper&lt;/i&gt;" style="swimlane;fontStyle=1;align=center;verticalAlign=top;childLayout=stackLayout;horizontal=1;startSize=30;horizontalStack=0;resizeParent=1;resizeParentMax=0;resizeLast=0;collapsible=1;marginBottom=0;whiteSpace=wrap;html=1;" parent="WIyWlLk6GJQsqaUBKTNV-1" vertex="1" collapsed="1">
          <mxGeometry x="1615" y="598" width="220" height="30" as="geometry">
            <mxRectangle x="940" y="450" width="160" height="86" as="alternateBounds" />
          </mxGeometry>
        </mxCell>
        <mxCell id="4_Cokz92HO-RgEl96AFD-212" value="+ field: type" style="text;strokeColor=none;fillColor=none;align=left;verticalAlign=top;spacingLeft=4;spacingRight=4;overflow=hidden;rotatable=0;points=[[0,0.5],[1,0.5]];portConstraint=eastwest;whiteSpace=wrap;html=1;" parent="4_Cokz92HO-RgEl96AFD-211" vertex="1">
          <mxGeometry y="26" width="160" height="26" as="geometry" />
        </mxCell>
        <mxCell id="4_Cokz92HO-RgEl96AFD-213" value="" style="line;strokeWidth=1;fillColor=none;align=left;verticalAlign=middle;spacingTop=-1;spacingLeft=3;spacingRight=3;rotatable=0;labelPosition=right;points=[];portConstraint=eastwest;strokeColor=inherit;" parent="4_Cokz92HO-RgEl96AFD-211" vertex="1">
          <mxGeometry y="52" width="160" height="8" as="geometry" />
        </mxCell>
        <mxCell id="4_Cokz92HO-RgEl96AFD-214" value="+ method(type): type" style="text;strokeColor=none;fillColor=none;align=left;verticalAlign=top;spacingLeft=4;spacingRight=4;overflow=hidden;rotatable=0;points=[[0,0.5],[1,0.5]];portConstraint=eastwest;whiteSpace=wrap;html=1;" parent="4_Cokz92HO-RgEl96AFD-211" vertex="1">
          <mxGeometry y="60" width="160" height="26" as="geometry" />
        </mxCell>
        <mxCell id="4_Cokz92HO-RgEl96AFD-215" value="&lt;i&gt;AbstractPython3CodeItemMapper&lt;/i&gt;" style="swimlane;fontStyle=1;align=center;verticalAlign=top;childLayout=stackLayout;horizontal=1;startSize=30;horizontalStack=0;resizeParent=1;resizeParentMax=0;resizeLast=0;collapsible=1;marginBottom=0;whiteSpace=wrap;html=1;" parent="WIyWlLk6GJQsqaUBKTNV-1" vertex="1" collapsed="1">
          <mxGeometry x="1865" y="598" width="250" height="30" as="geometry">
            <mxRectangle x="940" y="450" width="160" height="86" as="alternateBounds" />
          </mxGeometry>
        </mxCell>
        <mxCell id="4_Cokz92HO-RgEl96AFD-216" value="+ field: type" style="text;strokeColor=none;fillColor=none;align=left;verticalAlign=top;spacingLeft=4;spacingRight=4;overflow=hidden;rotatable=0;points=[[0,0.5],[1,0.5]];portConstraint=eastwest;whiteSpace=wrap;html=1;" parent="4_Cokz92HO-RgEl96AFD-215" vertex="1">
          <mxGeometry y="26" width="160" height="26" as="geometry" />
        </mxCell>
        <mxCell id="4_Cokz92HO-RgEl96AFD-217" value="" style="line;strokeWidth=1;fillColor=none;align=left;verticalAlign=middle;spacingTop=-1;spacingLeft=3;spacingRight=3;rotatable=0;labelPosition=right;points=[];portConstraint=eastwest;strokeColor=inherit;" parent="4_Cokz92HO-RgEl96AFD-215" vertex="1">
          <mxGeometry y="52" width="160" height="8" as="geometry" />
        </mxCell>
        <mxCell id="4_Cokz92HO-RgEl96AFD-218" value="+ method(type): type" style="text;strokeColor=none;fillColor=none;align=left;verticalAlign=top;spacingLeft=4;spacingRight=4;overflow=hidden;rotatable=0;points=[[0,0.5],[1,0.5]];portConstraint=eastwest;whiteSpace=wrap;html=1;" parent="4_Cokz92HO-RgEl96AFD-215" vertex="1">
          <mxGeometry y="60" width="160" height="26" as="geometry" />
        </mxCell>
        <mxCell id="4_Cokz92HO-RgEl96AFD-219" value="&lt;i&gt;AbstractCppCodeItemMapper&lt;/i&gt;" style="swimlane;fontStyle=1;align=center;verticalAlign=top;childLayout=stackLayout;horizontal=1;startSize=30;horizontalStack=0;resizeParent=1;resizeParentMax=0;resizeLast=0;collapsible=1;marginBottom=0;whiteSpace=wrap;html=1;" parent="WIyWlLk6GJQsqaUBKTNV-1" vertex="1" collapsed="1">
          <mxGeometry x="2150" y="598" width="220" height="30" as="geometry">
            <mxRectangle x="940" y="450" width="160" height="86" as="alternateBounds" />
          </mxGeometry>
        </mxCell>
        <mxCell id="4_Cokz92HO-RgEl96AFD-220" value="+ field: type" style="text;strokeColor=none;fillColor=none;align=left;verticalAlign=top;spacingLeft=4;spacingRight=4;overflow=hidden;rotatable=0;points=[[0,0.5],[1,0.5]];portConstraint=eastwest;whiteSpace=wrap;html=1;" parent="4_Cokz92HO-RgEl96AFD-219" vertex="1">
          <mxGeometry y="26" width="160" height="26" as="geometry" />
        </mxCell>
        <mxCell id="4_Cokz92HO-RgEl96AFD-221" value="" style="line;strokeWidth=1;fillColor=none;align=left;verticalAlign=middle;spacingTop=-1;spacingLeft=3;spacingRight=3;rotatable=0;labelPosition=right;points=[];portConstraint=eastwest;strokeColor=inherit;" parent="4_Cokz92HO-RgEl96AFD-219" vertex="1">
          <mxGeometry y="52" width="160" height="8" as="geometry" />
        </mxCell>
        <mxCell id="4_Cokz92HO-RgEl96AFD-222" value="+ method(type): type" style="text;strokeColor=none;fillColor=none;align=left;verticalAlign=top;spacingLeft=4;spacingRight=4;overflow=hidden;rotatable=0;points=[[0,0.5],[1,0.5]];portConstraint=eastwest;whiteSpace=wrap;html=1;" parent="4_Cokz92HO-RgEl96AFD-219" vertex="1">
          <mxGeometry y="60" width="160" height="26" as="geometry" />
        </mxCell>
        <mxCell id="4_Cokz92HO-RgEl96AFD-223" value="" style="endArrow=block;endSize=16;endFill=0;html=1;rounded=0;exitX=0.5;exitY=0;exitDx=0;exitDy=0;entryX=0.5;entryY=1;entryDx=0;entryDy=0;" parent="WIyWlLk6GJQsqaUBKTNV-1" source="4_Cokz92HO-RgEl96AFD-211" target="4_Cokz92HO-RgEl96AFD-206" edge="1">
          <mxGeometry width="160" relative="1" as="geometry">
            <mxPoint x="2340" y="824" as="sourcePoint" />
            <mxPoint x="2170" y="684" as="targetPoint" />
          </mxGeometry>
        </mxCell>
        <mxCell id="4_Cokz92HO-RgEl96AFD-224" value="" style="endArrow=block;endSize=16;endFill=0;html=1;rounded=0;exitX=0.5;exitY=0;exitDx=0;exitDy=0;entryX=0.5;entryY=1;entryDx=0;entryDy=0;" parent="WIyWlLk6GJQsqaUBKTNV-1" source="4_Cokz92HO-RgEl96AFD-215" target="4_Cokz92HO-RgEl96AFD-206" edge="1">
          <mxGeometry width="160" relative="1" as="geometry">
            <mxPoint x="2610" y="822" as="sourcePoint" />
            <mxPoint x="2865" y="684" as="targetPoint" />
          </mxGeometry>
        </mxCell>
        <mxCell id="4_Cokz92HO-RgEl96AFD-225" value="" style="endArrow=block;endSize=16;endFill=0;html=1;rounded=0;exitX=0.5;exitY=0;exitDx=0;exitDy=0;entryX=0.5;entryY=1;entryDx=0;entryDy=0;" parent="WIyWlLk6GJQsqaUBKTNV-1" source="4_Cokz92HO-RgEl96AFD-219" target="4_Cokz92HO-RgEl96AFD-206" edge="1">
          <mxGeometry width="160" relative="1" as="geometry">
            <mxPoint x="2865" y="822" as="sourcePoint" />
            <mxPoint x="2920" y="714" as="targetPoint" />
          </mxGeometry>
        </mxCell>
        <mxCell id="4_Cokz92HO-RgEl96AFD-230" value="ConcreteMapper" style="swimlane;fontStyle=0;align=center;verticalAlign=top;childLayout=stackLayout;horizontal=1;startSize=26;horizontalStack=0;resizeParent=1;resizeLast=0;collapsible=1;marginBottom=0;rounded=0;shadow=1;strokeWidth=1;" parent="WIyWlLk6GJQsqaUBKTNV-1" vertex="1" collapsed="1">
          <mxGeometry x="1645" y="674" width="160" height="26" as="geometry">
            <mxRectangle x="-987" y="1380" width="560" height="200" as="alternateBounds" />
          </mxGeometry>
        </mxCell>
        <mxCell id="4_Cokz92HO-RgEl96AFD-231" value="..." style="text;align=left;verticalAlign=top;spacingLeft=4;spacingRight=4;overflow=hidden;rotatable=0;points=[[0,0.5],[1,0.5]];portConstraint=eastwest;rounded=0;shadow=0;html=0;" parent="4_Cokz92HO-RgEl96AFD-230" vertex="1">
          <mxGeometry y="26" width="560" height="26" as="geometry" />
        </mxCell>
        <mxCell id="4_Cokz92HO-RgEl96AFD-232" value="" style="line;html=1;strokeWidth=1;align=left;verticalAlign=middle;spacingTop=-1;spacingLeft=3;spacingRight=3;rotatable=0;labelPosition=right;points=[];portConstraint=eastwest;" parent="4_Cokz92HO-RgEl96AFD-230" vertex="1">
          <mxGeometry y="52" width="560" height="8" as="geometry" />
        </mxCell>
        <mxCell id="4_Cokz92HO-RgEl96AFD-236" value="ConcreteMapper" style="swimlane;fontStyle=0;align=center;verticalAlign=top;childLayout=stackLayout;horizontal=1;startSize=26;horizontalStack=0;resizeParent=1;resizeLast=0;collapsible=1;marginBottom=0;rounded=0;shadow=1;strokeWidth=1;" parent="WIyWlLk6GJQsqaUBKTNV-1" vertex="1" collapsed="1">
          <mxGeometry x="1910" y="674" width="160" height="26" as="geometry">
            <mxRectangle x="-987" y="1380" width="560" height="200" as="alternateBounds" />
          </mxGeometry>
        </mxCell>
        <mxCell id="4_Cokz92HO-RgEl96AFD-237" value="..." style="text;align=left;verticalAlign=top;spacingLeft=4;spacingRight=4;overflow=hidden;rotatable=0;points=[[0,0.5],[1,0.5]];portConstraint=eastwest;rounded=0;shadow=0;html=0;" parent="4_Cokz92HO-RgEl96AFD-236" vertex="1">
          <mxGeometry y="26" width="560" height="26" as="geometry" />
        </mxCell>
        <mxCell id="4_Cokz92HO-RgEl96AFD-238" value="" style="line;html=1;strokeWidth=1;align=left;verticalAlign=middle;spacingTop=-1;spacingLeft=3;spacingRight=3;rotatable=0;labelPosition=right;points=[];portConstraint=eastwest;" parent="4_Cokz92HO-RgEl96AFD-236" vertex="1">
          <mxGeometry y="52" width="560" height="8" as="geometry" />
        </mxCell>
        <mxCell id="4_Cokz92HO-RgEl96AFD-239" value="ConcreteMapper" style="swimlane;fontStyle=0;align=center;verticalAlign=top;childLayout=stackLayout;horizontal=1;startSize=26;horizontalStack=0;resizeParent=1;resizeLast=0;collapsible=1;marginBottom=0;rounded=0;shadow=1;strokeWidth=1;" parent="WIyWlLk6GJQsqaUBKTNV-1" vertex="1" collapsed="1">
          <mxGeometry x="2180" y="674" width="160" height="26" as="geometry">
            <mxRectangle x="-987" y="1380" width="560" height="200" as="alternateBounds" />
          </mxGeometry>
        </mxCell>
        <mxCell id="4_Cokz92HO-RgEl96AFD-240" value="..." style="text;align=left;verticalAlign=top;spacingLeft=4;spacingRight=4;overflow=hidden;rotatable=0;points=[[0,0.5],[1,0.5]];portConstraint=eastwest;rounded=0;shadow=0;html=0;" parent="4_Cokz92HO-RgEl96AFD-239" vertex="1">
          <mxGeometry y="26" width="560" height="26" as="geometry" />
        </mxCell>
        <mxCell id="4_Cokz92HO-RgEl96AFD-241" value="" style="line;html=1;strokeWidth=1;align=left;verticalAlign=middle;spacingTop=-1;spacingLeft=3;spacingRight=3;rotatable=0;labelPosition=right;points=[];portConstraint=eastwest;" parent="4_Cokz92HO-RgEl96AFD-239" vertex="1">
          <mxGeometry y="52" width="560" height="8" as="geometry" />
        </mxCell>
        <mxCell id="4_Cokz92HO-RgEl96AFD-242" value="" style="endArrow=block;endSize=16;endFill=0;html=1;rounded=0;exitX=0.5;exitY=0;exitDx=0;exitDy=0;entryX=0.5;entryY=1;entryDx=0;entryDy=0;" parent="WIyWlLk6GJQsqaUBKTNV-1" source="4_Cokz92HO-RgEl96AFD-230" target="4_Cokz92HO-RgEl96AFD-211" edge="1">
          <mxGeometry width="160" relative="1" as="geometry">
            <mxPoint x="2610" y="822" as="sourcePoint" />
            <mxPoint x="2865" y="684" as="targetPoint" />
          </mxGeometry>
        </mxCell>
        <mxCell id="4_Cokz92HO-RgEl96AFD-246" value="" style="endArrow=block;endSize=16;endFill=0;html=1;rounded=0;exitX=0.5;exitY=0;exitDx=0;exitDy=0;entryX=0.5;entryY=1;entryDx=0;entryDy=0;" parent="WIyWlLk6GJQsqaUBKTNV-1" source="4_Cokz92HO-RgEl96AFD-236" target="4_Cokz92HO-RgEl96AFD-215" edge="1">
          <mxGeometry width="160" relative="1" as="geometry">
            <mxPoint x="2610" y="956" as="sourcePoint" />
            <mxPoint x="2610" y="852" as="targetPoint" />
          </mxGeometry>
        </mxCell>
        <mxCell id="4_Cokz92HO-RgEl96AFD-247" value="" style="endArrow=block;endSize=16;endFill=0;html=1;rounded=0;exitX=0.5;exitY=0;exitDx=0;exitDy=0;entryX=0.5;entryY=1;entryDx=0;entryDy=0;" parent="WIyWlLk6GJQsqaUBKTNV-1" source="4_Cokz92HO-RgEl96AFD-239" target="4_Cokz92HO-RgEl96AFD-219" edge="1">
          <mxGeometry width="160" relative="1" as="geometry">
            <mxPoint x="2865" y="956" as="sourcePoint" />
            <mxPoint x="2865" y="852" as="targetPoint" />
          </mxGeometry>
        </mxCell>
        <mxCell id="4_Cokz92HO-RgEl96AFD-251" value="" style="endArrow=open;endFill=1;endSize=12;html=1;rounded=0;exitX=1;exitY=0.5;exitDx=0;exitDy=0;entryX=0;entryY=0.5;entryDx=0;entryDy=0;" parent="WIyWlLk6GJQsqaUBKTNV-1" source="oxDfwAe6c3NzlhZEujYv-80" target="oxDfwAe6c3NzlhZEujYv-109" edge="1">
          <mxGeometry width="160" relative="1" as="geometry">
            <mxPoint x="-700" y="1128" as="sourcePoint" />
            <mxPoint x="90" y="954" as="targetPoint" />
          </mxGeometry>
        </mxCell>
        <mxCell id="4_Cokz92HO-RgEl96AFD-252" value="" style="endArrow=open;endFill=1;endSize=12;html=1;rounded=0;exitX=1;exitY=0.5;exitDx=0;exitDy=0;entryX=0;entryY=0.5;entryDx=0;entryDy=0;" parent="WIyWlLk6GJQsqaUBKTNV-1" source="oxDfwAe6c3NzlhZEujYv-88" target="oxDfwAe6c3NzlhZEujYv-153" edge="1">
          <mxGeometry width="160" relative="1" as="geometry">
            <mxPoint x="-580" y="414" as="sourcePoint" />
            <mxPoint x="-607" y="938" as="targetPoint" />
          </mxGeometry>
        </mxCell>
        <mxCell id="4_Cokz92HO-RgEl96AFD-253" value="" style="endArrow=open;endFill=1;endSize=12;html=1;rounded=0;exitX=1;exitY=0.5;exitDx=0;exitDy=0;entryX=0;entryY=0.5;entryDx=0;entryDy=0;" parent="WIyWlLk6GJQsqaUBKTNV-1" source="oxDfwAe6c3NzlhZEujYv-93" target="oxDfwAe6c3NzlhZEujYv-178" edge="1">
          <mxGeometry width="160" relative="1" as="geometry">
            <mxPoint x="-363" y="414" as="sourcePoint" />
            <mxPoint x="-265" y="888" as="targetPoint" />
          </mxGeometry>
        </mxCell>
        <mxCell id="TMyXwXNf2kEzvNeQ0ZGA-1" value="" style="endArrow=block;endSize=16;endFill=0;html=1;rounded=0;entryX=1;entryY=0.5;entryDx=0;entryDy=0;exitX=0;exitY=0.5;exitDx=0;exitDy=0;" parent="WIyWlLk6GJQsqaUBKTNV-1" source="oxDfwAe6c3NzlhZEujYv-93" target="oxDfwAe6c3NzlhZEujYv-60" edge="1">
          <mxGeometry width="160" relative="1" as="geometry">
            <mxPoint x="-885" y="588" as="sourcePoint" />
            <mxPoint x="-425" y="505" as="targetPoint" />
          </mxGeometry>
        </mxCell>
        <mxCell id="TMyXwXNf2kEzvNeQ0ZGA-2" value="" style="endArrow=block;endSize=16;endFill=0;html=1;rounded=0;entryX=1;entryY=0.5;entryDx=0;entryDy=0;exitX=0;exitY=0.5;exitDx=0;exitDy=0;" parent="WIyWlLk6GJQsqaUBKTNV-1" source="oxDfwAe6c3NzlhZEujYv-80" target="oxDfwAe6c3NzlhZEujYv-60" edge="1">
          <mxGeometry width="160" relative="1" as="geometry">
            <mxPoint x="-885" y="588" as="sourcePoint" />
            <mxPoint x="-425" y="505" as="targetPoint" />
          </mxGeometry>
        </mxCell>
        <mxCell id="TMyXwXNf2kEzvNeQ0ZGA-7" value="Use" style="endArrow=open;endSize=12;dashed=1;html=1;rounded=0;exitX=0.5;exitY=0;exitDx=0;exitDy=0;entryX=0.5;entryY=1;entryDx=0;entryDy=0;" parent="WIyWlLk6GJQsqaUBKTNV-1" source="oxDfwAe6c3NzlhZEujYv-153" target="4_Cokz92HO-RgEl96AFD-55" edge="1">
          <mxGeometry x="0.214" y="-2" width="160" relative="1" as="geometry">
            <mxPoint x="-567" y="674" as="sourcePoint" />
            <mxPoint x="250" y="398" as="targetPoint" />
            <mxPoint as="offset" />
          </mxGeometry>
        </mxCell>
        <mxCell id="TMyXwXNf2kEzvNeQ0ZGA-8" value="Use" style="endArrow=open;endSize=12;dashed=1;html=1;rounded=0;exitX=0.5;exitY=0;exitDx=0;exitDy=0;entryX=0.5;entryY=1;entryDx=0;entryDy=0;" parent="WIyWlLk6GJQsqaUBKTNV-1" source="oxDfwAe6c3NzlhZEujYv-109" target="4_Cokz92HO-RgEl96AFD-55" edge="1">
          <mxGeometry x="0.3062" y="5" width="160" relative="1" as="geometry">
            <mxPoint x="-567" y="463" as="sourcePoint" />
            <mxPoint x="-1090" y="1028" as="targetPoint" />
            <mxPoint as="offset" />
          </mxGeometry>
        </mxCell>
        <mxCell id="TMyXwXNf2kEzvNeQ0ZGA-11" value="" style="endArrow=diamondThin;endFill=1;endSize=24;html=1;rounded=0;entryX=1;entryY=0.5;entryDx=0;entryDy=0;exitX=0;exitY=0.5;exitDx=0;exitDy=0;" parent="WIyWlLk6GJQsqaUBKTNV-1" source="4_Cokz92HO-RgEl96AFD-166" target="zkfFHV4jXpPFQw0GAbJ--13" edge="1">
          <mxGeometry width="160" relative="1" as="geometry">
            <mxPoint x="1380" y="380.38" as="sourcePoint" />
            <mxPoint x="850" y="380.38" as="targetPoint" />
          </mxGeometry>
        </mxCell>
        <mxCell id="TMyXwXNf2kEzvNeQ0ZGA-12" value="" style="endArrow=diamondThin;endFill=1;endSize=24;html=1;rounded=0;entryX=0;entryY=0.5;entryDx=0;entryDy=0;exitX=1;exitY=0.5;exitDx=0;exitDy=0;" parent="WIyWlLk6GJQsqaUBKTNV-1" source="e4ImrdiEV3El-CMQHUWS-0" target="zkfFHV4jXpPFQw0GAbJ--13" edge="1">
          <mxGeometry width="160" relative="1" as="geometry">
            <mxPoint x="100" y="440.5" as="sourcePoint" />
            <mxPoint x="860" y="391" as="targetPoint" />
          </mxGeometry>
        </mxCell>
        <mxCell id="TMyXwXNf2kEzvNeQ0ZGA-16" value="" style="endArrow=diamondThin;endFill=0;endSize=24;html=1;rounded=0;entryX=0;entryY=1;entryDx=0;entryDy=0;exitX=0.5;exitY=0;exitDx=0;exitDy=0;" parent="WIyWlLk6GJQsqaUBKTNV-1" source="4_Cokz92HO-RgEl96AFD-73" target="4_Cokz92HO-RgEl96AFD-166" edge="1">
          <mxGeometry width="160" relative="1" as="geometry">
            <mxPoint x="1002.5" y="1098" as="sourcePoint" />
            <mxPoint x="1070" y="778" as="targetPoint" />
          </mxGeometry>
        </mxCell>
        <mxCell id="TMyXwXNf2kEzvNeQ0ZGA-17" value="" style="endArrow=diamondThin;endFill=0;endSize=24;html=1;rounded=0;entryX=1;entryY=0.5;entryDx=0;entryDy=0;exitX=0.5;exitY=0;exitDx=0;exitDy=0;" parent="WIyWlLk6GJQsqaUBKTNV-1" source="4_Cokz92HO-RgEl96AFD-73" target="e4ImrdiEV3El-CMQHUWS-0" edge="1">
          <mxGeometry width="160" relative="1" as="geometry">
            <mxPoint x="1002.5" y="1098" as="sourcePoint" />
            <mxPoint x="100" y="463" as="targetPoint" />
          </mxGeometry>
        </mxCell>
        <mxCell id="TMyXwXNf2kEzvNeQ0ZGA-18" value="" style="endArrow=diamondThin;endFill=1;endSize=24;html=1;rounded=0;entryX=1;entryY=0.5;entryDx=0;entryDy=0;exitX=0;exitY=0.5;exitDx=0;exitDy=0;" parent="WIyWlLk6GJQsqaUBKTNV-1" source="4_Cokz92HO-RgEl96AFD-175" target="4_Cokz92HO-RgEl96AFD-166" edge="1">
          <mxGeometry width="160" relative="1" as="geometry">
            <mxPoint x="2370" y="471.57" as="sourcePoint" />
            <mxPoint x="1840" y="471.57" as="targetPoint" />
          </mxGeometry>
        </mxCell>
        <mxCell id="TMyXwXNf2kEzvNeQ0ZGA-19" value="" style="endArrow=block;startArrow=block;endFill=1;startFill=1;html=1;rounded=0;entryX=0;entryY=0.5;entryDx=0;entryDy=0;exitX=1;exitY=0.5;exitDx=0;exitDy=0;" parent="WIyWlLk6GJQsqaUBKTNV-1" source="4_Cokz92HO-RgEl96AFD-175" target="4_Cokz92HO-RgEl96AFD-206" edge="1">
          <mxGeometry width="160" relative="1" as="geometry">
            <mxPoint x="2450" y="407.5" as="sourcePoint" />
            <mxPoint x="2570" y="407.5" as="targetPoint" />
          </mxGeometry>
        </mxCell>
        <mxCell id="TMyXwXNf2kEzvNeQ0ZGA-20" value="" style="endArrow=diamondThin;endFill=1;endSize=24;html=1;rounded=0;entryX=1;entryY=0.5;entryDx=0;entryDy=0;exitX=0;exitY=0.5;exitDx=0;exitDy=0;" parent="WIyWlLk6GJQsqaUBKTNV-1" source="4_Cokz92HO-RgEl96AFD-77" target="4_Cokz92HO-RgEl96AFD-73" edge="1">
          <mxGeometry width="160" relative="1" as="geometry">
            <mxPoint x="1280" y="1108" as="sourcePoint" />
            <mxPoint x="1078" y="1057" as="targetPoint" />
          </mxGeometry>
        </mxCell>
        <mxCell id="e4ImrdiEV3El-CMQHUWS-0" value="ElementExtractor" style="swimlane;fontStyle=3;align=center;verticalAlign=top;childLayout=stackLayout;horizontal=1;startSize=26;horizontalStack=0;resizeParent=1;resizeLast=0;collapsible=1;marginBottom=0;rounded=0;shadow=0;strokeWidth=1;" vertex="1" collapsed="1" parent="WIyWlLk6GJQsqaUBKTNV-1">
          <mxGeometry x="170" y="488" width="160" height="26" as="geometry">
            <mxRectangle x="-160" y="460" width="260" height="174" as="alternateBounds" />
          </mxGeometry>
        </mxCell>
        <mxCell id="e4ImrdiEV3El-CMQHUWS-4" value="" style="line;html=1;strokeWidth=1;align=left;verticalAlign=middle;spacingTop=-1;spacingLeft=3;spacingRight=3;rotatable=0;labelPosition=right;points=[];portConstraint=eastwest;" vertex="1" parent="e4ImrdiEV3El-CMQHUWS-0">
          <mxGeometry y="26" width="260" height="8" as="geometry" />
        </mxCell>
        <mxCell id="e4ImrdiEV3El-CMQHUWS-7" value="" style="endArrow=block;endSize=16;endFill=0;html=1;rounded=0;entryX=0;entryY=0.5;entryDx=0;entryDy=0;exitX=1;exitY=0.5;exitDx=0;exitDy=0;" edge="1" parent="WIyWlLk6GJQsqaUBKTNV-1" source="oxDfwAe6c3NzlhZEujYv-178" target="e4ImrdiEV3El-CMQHUWS-0">
          <mxGeometry width="160" relative="1" as="geometry">
            <mxPoint x="315" y="814" as="sourcePoint" />
            <mxPoint x="315" y="910" as="targetPoint" />
          </mxGeometry>
        </mxCell>
        <mxCell id="e4ImrdiEV3El-CMQHUWS-8" value="" style="endArrow=block;endSize=16;endFill=0;html=1;rounded=0;entryX=0;entryY=0.5;entryDx=0;entryDy=0;exitX=1;exitY=0.5;exitDx=0;exitDy=0;" edge="1" parent="WIyWlLk6GJQsqaUBKTNV-1" source="oxDfwAe6c3NzlhZEujYv-153" target="e4ImrdiEV3El-CMQHUWS-0">
          <mxGeometry width="160" relative="1" as="geometry">
            <mxPoint x="120" y="636" as="sourcePoint" />
            <mxPoint x="180" y="511" as="targetPoint" />
          </mxGeometry>
        </mxCell>
        <mxCell id="e4ImrdiEV3El-CMQHUWS-9" value="" style="endArrow=block;endSize=16;endFill=0;html=1;rounded=0;entryX=0;entryY=0.5;entryDx=0;entryDy=0;exitX=1;exitY=0.5;exitDx=0;exitDy=0;" edge="1" parent="WIyWlLk6GJQsqaUBKTNV-1" source="oxDfwAe6c3NzlhZEujYv-109" target="e4ImrdiEV3El-CMQHUWS-0">
          <mxGeometry width="160" relative="1" as="geometry">
            <mxPoint x="87" y="513" as="sourcePoint" />
            <mxPoint x="180" y="511" as="targetPoint" />
          </mxGeometry>
        </mxCell>
        <mxCell id="e4ImrdiEV3El-CMQHUWS-18" value="&lt;&lt;Interface&gt;&gt;&#xa;Serializable" style="swimlane;fontStyle=1;align=center;verticalAlign=top;childLayout=stackLayout;horizontal=1;startSize=36;horizontalStack=0;resizeParent=1;resizeLast=0;collapsible=1;marginBottom=0;rounded=0;shadow=0;strokeWidth=1;" vertex="1" collapsed="1" parent="WIyWlLk6GJQsqaUBKTNV-1">
          <mxGeometry x="682.5" y="78" width="165" height="36" as="geometry">
            <mxRectangle x="-160" y="460" width="260" height="174" as="alternateBounds" />
          </mxGeometry>
        </mxCell>
        <mxCell id="e4ImrdiEV3El-CMQHUWS-19" value="" style="line;html=1;strokeWidth=1;align=left;verticalAlign=middle;spacingTop=-1;spacingLeft=3;spacingRight=3;rotatable=0;labelPosition=right;points=[];portConstraint=eastwest;" vertex="1" parent="e4ImrdiEV3El-CMQHUWS-18">
          <mxGeometry y="26" width="260" height="8" as="geometry" />
        </mxCell>
      </root>
    </mxGraphModel>
  </diagram>
</mxfile>
